<?xml version="1.0" standalone="no"?>
<!DOCTYPE svg PUBLIC "-//W3C//DTD SVG 1.1//EN" "http://www.w3.org/Graphics/SVG/1.1/DTD/svg11.dtd" >
<svg xmlns="http://www.w3.org/2000/svg" xmlns:xlink="http://www.w3.org/1999/xlink" version="1.1">
<metadata>
Created by FontForge 20170731 at Fri Feb 17 22:48:10 2006
 By Aleksey,,,
Copyright (c) Joshua Darden &#38; Phil's Fonts, Inc, 2005. All rights reserved.
</metadata>
<defs>
<font id="Freight-DispBlack" horiz-adv-x="499" >
  <font-face 
    font-family="Freight"
    font-weight="900"
    font-stretch="normal"
    units-per-em="1000"
    panose-1="2 0 6 3 9 0 0 2 0 4"
    ascent="800"
    descent="-200"
    x-height="439"
    cap-height="625"
    bbox="-114 -277 1022 866"
    underline-thickness="20"
    underline-position="-206"
    unicode-range="U+0020-FB02"
  />
<missing-glyph horiz-adv-x="500" 
 />
    <glyph glyph-name=".notdef" horiz-adv-x="500" 
 />
    <glyph glyph-name=".null" horiz-adv-x="0" 
 />
    <glyph glyph-name=".null" horiz-adv-x="0" 
 />
    <glyph glyph-name="nonmarkingreturn" horiz-adv-x="333" 
 />
    <glyph glyph-name="space" unicode=" " horiz-adv-x="139" 
 />
    <glyph glyph-name="exclam" unicode="!" horiz-adv-x="293" 
d="M69 564q-7 33 10.5 54t66.5 21h3q48 0 65.5 -21t10.5 -54l-70 -357q-2 -6 -8 -7t-8 7zM147 -13q-31 0 -53 22t-22 54q0 31 22 52.5t53 21.5t53.5 -22t22.5 -52q0 -31 -22 -53.5t-54 -22.5z" />
    <glyph glyph-name="quotedbl" unicode="&#x22;" horiz-adv-x="374" 
d="M287 644h1l87 -34l-175 -207h-20zM106 644h2l87 -34l-177 -207h-19z" />
    <glyph glyph-name="numbersign" unicode="#" horiz-adv-x="525" 
d="M315 210l53 203h-157l-54 -203h158zM126 188h-133v22h139l54 203h-134v22h139l53 197h25l-52 -197h157l52 197h25l-52 -197h133v-22h-139l-53 -203h133v-22h-139l-51 -193h-25l51 193h-157l-52 -193h-25z" />
    <glyph glyph-name="dollar" unicode="$" horiz-adv-x="529" 
d="M172 -8q-58 6 -117 28l-14 181h32l52 -113q24 -30 58 -51l15 55q14 54 28 109l14 55q-1 1 -8 3q-45 16 -72 28.5t-57 33.5t-44 50t-14 68q0 86 67.5 142t167.5 56q31 0 58 -4l27 105h25l-28 -109q45 -10 62 -16l48 15l3 -194h-29l-89 161l-1 1q-2 0 -2 1l-49 -188
q2 -1 3.5 -2t3.5 -1q96 -31 148 -75t52 -128q0 -88 -72 -152t-178 -64q-35 0 -65 3l-38 -147h-26zM331 605q-28 6 -57 6q-50 0 -80 -24t-30 -63q0 -41 29 -63t89 -44zM206 25q30 -12 61 -12q61 0 93 29t32 79q0 49 -32.5 76.5t-95.5 50.5z" />
    <glyph glyph-name="percent" unicode="%" horiz-adv-x="594" 
d="M147 386q52 0 83.5 34t31.5 83q0 50 -31.5 84.5t-83.5 34.5t-82.5 -34t-30.5 -85q0 -49 31 -83t82 -34zM147 365q-61 0 -98.5 40t-37.5 98t37.5 99t98.5 41q62 0 100 -41t38 -99t-38 -98t-100 -40zM446 4q52 0 83 33.5t31 84.5q0 49 -32 83.5t-82 34.5t-81.5 -34.5
t-31.5 -83.5q0 -52 30.5 -85t82.5 -33zM446 -17q-61 0 -98.5 40t-37.5 98t37.5 99t98.5 41q62 0 99.5 -41t37.5 -99t-37.5 -98t-99.5 -40zM510 640h24l-451 -654h-25z" />
    <glyph glyph-name="ampersand" unicode="&#x26;" horiz-adv-x="737" 
d="M325 412q28 31 28 97q0 44 -19 74.5t-52 30.5q-30 0 -48 -23t-18 -62q0 -34 27.5 -65.5t81.5 -51.5zM287 76q68 0 119 48q-61 153 -197 208q-58 -39 -58 -120q0 -57 39 -96.5t97 -39.5zM200 -13q-81 0 -132 48t-51 120q0 70 49 118t125 67q-46 20 -75 57.5t-29 85.5
q0 64 64.5 107.5t143.5 43.5q77 0 130 -30.5t53 -84.5q0 -50 -43.5 -80.5t-92.5 -33.5q45 -22 93.5 -69.5t77.5 -95.5q58 85 58 110q8 23 -8.5 35.5t-52.5 18.5l-17 4l-3 17h255l-3 -17l-21 -4q-34 -2 -55.5 -18t-58.5 -65l-83 -102q41 -89 72.5 -124t75.5 -35q38 0 70 32
l10 -9q-26 -26 -44.5 -42t-57.5 -35t-77 -19q-59 0 -96 28.5t-64 89.5q-53 -58 -103 -88t-110 -30z" />
    <glyph glyph-name="quotesingle" unicode="'" horiz-adv-x="195" 
d="M106 644h2l87 -34l-177 -207h-19z" />
    <glyph glyph-name="parenleft" unicode="(" horiz-adv-x="340" 
d="M326 -264q-43 24 -86.5 64.5t-84.5 97.5t-66.5 136t-25.5 165t25.5 165.5t66.5 137t84.5 97.5t86.5 63l12 -18q-93 -50 -171 -170.5t-78 -274.5q0 -81 24 -156.5t62 -131t79.5 -95t83.5 -61.5z" />
    <glyph glyph-name="parenright" unicode=")" horiz-adv-x="340" 
d="M2 -246q33 19 66 47t66.5 69.5t59 89.5t41.5 110.5t16 128.5q0 154 -78 274.5t-171 170.5l12 18q43 -23 86.5 -63t84.5 -97.5t66.5 -137t25.5 -165.5t-25.5 -165t-66.5 -136t-84.5 -97.5t-86.5 -64.5z" />
    <glyph glyph-name="asterisk" unicode="*" horiz-adv-x="332" 
d="M154 326l7 136q0 3 -5 5q-3 1 -3 -1l-63 -118l-65 11q-7 0 -9 7l1 67l131 36q2 6 0 12l-131 36l-1 68q2 5 9 5l65 12l62 -116q1 -2 4.5 -1t3.5 2l-8 137l64 22q2 2 7 -2l1 -1l33 -53l-90 -104q-3 -1 1 -6q2 -3 4 -2l124 53l43 -51q2 -2 2 -6t-2 -5l-43 -49l-124 53
q-2 0 -4.5 -4t-0.5 -6l90 -102l-33 -53q-1 -1 -3 -2l-4 -2h-2z" />
    <glyph glyph-name="plus" unicode="+" horiz-adv-x="447" 
d="M211 224h-198l2 25h196v197h26v-197h195l2 -25h-197v-200h-26v200z" />
    <glyph glyph-name="comma" unicode="," horiz-adv-x="223" 
d="M31 -139q92 53 92 125q0 44 -36.5 63.5t-64.5 7.5q-8 30 15 63t66 33q47 0 75 -32t28 -74q0 -56 -42.5 -110.5t-120.5 -89.5z" />
    <glyph glyph-name="hyphen" unicode="-" horiz-adv-x="297" 
d="M26 264h249l-2 -48h-250z" />
    <glyph glyph-name="period" unicode="." horiz-adv-x="229" 
d="M115 -13q-33 0 -56 23.5t-23 56.5q0 32 23 54.5t56 22.5q31 0 54.5 -23.5t23.5 -53.5q0 -33 -23 -56.5t-55 -23.5z" />
    <glyph glyph-name="slash" unicode="/" horiz-adv-x="258" 
d="M224 651h24l-212 -877h-24z" />
    <glyph glyph-name="zero" unicode="0" horiz-adv-x="595" 
d="M296 9q49 0 81 65t32 161q0 244 -111 244q-48 0 -80 -64t-32 -163q0 -243 110 -243zM290 -13q-113 0 -185.5 71.5t-72.5 182.5q0 110 80 184.5t193 74.5t185.5 -71.5t72.5 -182.5t-79.5 -185t-193.5 -74z" />
    <glyph glyph-name="one" unicode="1" horiz-adv-x="370" 
d="M45 19l29 4q12 1 18 2t12 3t8.5 5t2.5 7v385l-90 9l3 17l240 47v-459q0 -13 46 -16l27 -4l3 -19h-302z" />
    <glyph glyph-name="two" unicode="2" horiz-adv-x="500" 
d="M21 57q140 100 171 128q62 60 63 121q0 45 -29 73.5t-73 28.5q-77 0 -118 -75l-12 6q27 77 86.5 118.5t136.5 41.5q69 0 114 -36.5t45 -93.5q0 -15 -3 -29t-12.5 -29t-17 -26t-26.5 -26.5t-30.5 -25.5t-39 -28.5t-42.5 -28.5t-50.5 -33t-53.5 -35v-4l209 -1
q44 0 65.5 20.5t49.5 80.5l12 22l19 -2l-44 -224h-413z" />
    <glyph glyph-name="three" unicode="3" horiz-adv-x="459" 
d="M167 -201q-71 0 -114.5 26.5t-43.5 69.5q0 27 18 44.5t45 17.5q43 0 67 -40.5t20 -88.5q4 -4 16 -4q54 0 86.5 44t32.5 114q0 66 -36.5 107.5t-95.5 41.5q-39 0 -86 -22l-7 19q108 56 146.5 89.5t38.5 85.5q0 47 -30.5 76.5t-76.5 29.5q-80 0 -114 -75l-12 5
q24 77 81.5 118.5t133.5 41.5q73 0 117 -36t44 -91t-38.5 -91t-109.5 -69v-2q87 -6 137.5 -55t50.5 -123q0 -94 -78.5 -163.5t-191.5 -69.5z" />
    <glyph glyph-name="four" unicode="4" horiz-adv-x="542" 
d="M276 90v273h-3l-188 -273h191zM276 3h-259l-3 23l318 463h85v-400h119l-22 -86h-97v-187h-141v187z" />
    <glyph glyph-name="five" unicode="5" horiz-adv-x="442" 
d="M141 -199q-153 0 -153 96q0 27 19 46t47 19q40 0 60 -37.5t8 -83.5q26 -14 54 -14q45 0 76 39t31 98q0 83 -61.5 126.5t-190.5 53.5l86 338h296l-18 -125h-284l-23 -92q317 -25 317 -222q0 -96 -84 -169t-180 -73z" />
    <glyph glyph-name="six" unicode="6" horiz-adv-x="560" 
d="M292 10q83 0 83 173q0 167 -112 167q-34 0 -59 -23q-9 -31 -9 -89q0 -105 25 -166.5t72 -61.5zM280 -14q-108 0 -179 73.5t-71 187.5q0 165 138.5 288t341.5 135l8 -17q-128 -19 -211.5 -107.5t-106.5 -190.5l2 -2q72 54 146 54q82 0 132.5 -51.5t50.5 -140.5
q0 -94 -72.5 -161.5t-178.5 -67.5z" />
    <glyph glyph-name="seven" unicode="7" horiz-adv-x="490" 
d="M404 365l1 2h-171q-72 0 -108.5 -7t-50.5 -21t-21 -44l-10 -24h-20l26 213h425l2 -19l-279 -649h-121z" />
    <glyph glyph-name="eight" unicode="8" horiz-adv-x="533" 
d="M323 370q34 26 34 102q0 63 -28 105.5t-73 42.5q-42 0 -67 -30t-25 -72q0 -49 37.5 -82t121.5 -66zM276 9q43 0 72.5 30t29.5 72q0 52 -44 89.5t-133 72.5q-32 -26 -34 -109q0 -61 30.5 -108t78.5 -47zM269 -15q-105 0 -171 45t-66 121q0 44 41 80.5t101 51.5v1
q-134 57 -134 163q0 82 59 137.5t161 55.5q103 0 166.5 -41t63.5 -110q0 -47 -39 -79t-102 -49v-1q152 -57 152 -174q0 -84 -64.5 -142.5t-167.5 -58.5z" />
    <glyph glyph-name="nine" unicode="9" horiz-adv-x="560" 
d="M295 135q34 0 59 21q8 30 8 91q0 42 -5 80t-15 72t-29.5 54t-45.5 20q-37 0 -60.5 -43t-23.5 -127q0 -83 29 -125.5t83 -42.5zM40 -169q66 9 123.5 39.5t96 74t63.5 90.5t35 94l-4 2q-69 -54 -144 -54q-81 0 -132.5 51t-51.5 142q0 96 75 162t178 66q110 0 179.5 -74.5
t69.5 -187.5q0 -165 -138.5 -287t-341.5 -136z" />
    <glyph glyph-name="colon" unicode=":" horiz-adv-x="227" 
d="M115 280q-33 0 -56 23t-23 56q0 32 23 54.5t56 22.5q32 0 55 -22.5t23 -54.5t-23 -55.5t-55 -23.5zM115 -12q-33 0 -56 23t-23 55t23 54.5t56 22.5q32 0 55 -22.5t23 -54.5t-23 -55t-55 -23z" />
    <glyph glyph-name="semicolon" unicode=";" horiz-adv-x="223" 
d="M109 280q-32 0 -54.5 23t-22.5 56q0 32 22.5 54.5t54.5 22.5q33 0 56 -23t23 -54q0 -33 -23 -56t-56 -23zM31 -138q92 53 92 124q0 43 -36 61.5t-65 9.5q-8 30 15 63t66 33q46 0 74.5 -31.5t28.5 -73.5q0 -57 -42.5 -110.5t-120.5 -88.5z" />
    <glyph glyph-name="less" unicode="&#x3c;" horiz-adv-x="438" 
d="M11 227v17l401 193l8 -24l-368 -176v-2l368 -178l-8 -24z" />
    <glyph glyph-name="equal" unicode="=" horiz-adv-x="444" 
d="M22 334h400l-3 -25h-394zM25 161h394l3 -25h-400z" />
    <glyph glyph-name="greater" unicode="&#x3e;" horiz-adv-x="438" 
d="M18 57l368 178v2l-368 176l8 24l401 -193v-17l-401 -194z" />
    <glyph glyph-name="question" unicode="?" horiz-adv-x="367" 
d="M169 182q-39 25 -64.5 57.5t-25.5 61.5q0 68 129 98q52 15 72.5 26t20.5 26q0 27 -44 45.5t-105 18.5q-27 0 -90 -11q-34 20 -36 58q-2 35 19.5 56t67.5 21q89 0 154 -69t65 -157q0 -56 -19 -81.5t-66 -42.5q-78 -27 -89 -38q-6 -7 -6 -14q0 -13 7.5 -23t27.5 -28z
M174 -13q-30 0 -52.5 22.5t-22.5 53.5q0 30 22.5 52t52.5 22q32 0 54 -22t22 -52q0 -31 -22 -53.5t-54 -22.5z" />
    <glyph glyph-name="at" unicode="@" horiz-adv-x="809" 
d="M324 132q51 0 121 130q29 58 29 78q-6 32 -28.5 60t-41.5 28q-12 0 -27 -15q-27 -26 -58.5 -101t-31.5 -126q0 -24 10 -39t27 -15zM406 -121q-164 0 -270.5 102t-106.5 258q0 171 117.5 292t284.5 121q151 0 250 -89.5t99 -232.5q0 -113 -70.5 -197.5t-168.5 -84.5
q-49 0 -82.5 24.5t-33.5 63.5q0 31 28 100h-4q-59 -99 -96 -140t-84 -41q-43 0 -73.5 29.5t-32.5 76.5q0 57 33 121.5t90 119.5q69 73 140 73q35 0 52.5 -29t13.5 -73h4l45 117l120 -3l-67 -173l-47 -134q-10 -31 6 -52t59 -21q53 0 100 64.5t47 156.5q0 136 -92.5 220.5
t-237.5 84.5q-156 0 -267 -116t-111 -276q0 -152 99.5 -247.5t257.5 -95.5q82 0 155 40t110 100l10 -15q-40 -63 -115 -103.5t-162 -40.5z" />
    <glyph glyph-name="A" unicode="A" horiz-adv-x="680" 
d="M153 176q-33 -99 -31 -120q2 -23 36 -30q10 -3 26 -5l21 -3l3 -18h-225l3 18l18 3q48 8 66.5 33.5t62.5 142.5l117 322l-9 37q33 9 67 33t47 54h24l183 -513q23 -62 42.5 -83t49.5 -25l26 -4l2 -18h-340l3 18l23 3q35 3 39.5 21.5t-13.5 67.5l-45 132h-173zM266 485h-4
l-77 -219h156z" />
    <glyph glyph-name="B" unicode="B" horiz-adv-x="639" 
d="M277 342q62 -2 103 31.5t41 99.5q0 62 -39.5 95.5t-102.5 33.5h-7q-6 0 -10 -1v-259h15zM312 21q55 4 93 46.5t38 106.5q0 69 -46.5 109t-114.5 40q-17 0 -20 -1v-289l44 -14zM19 17l36 4q43 7 43 18v549q0 6 -9 8.5t-43 6.5l-26 3l-3 19h290q148 0 213.5 -33t65.5 -110
q0 -55 -47.5 -89.5t-129.5 -47.5v-3q93 -9 148.5 -51t55.5 -112q0 -179 -291 -179h-306z" />
    <glyph glyph-name="C" unicode="C" horiz-adv-x="702" 
d="M396 -12q-167 0 -266 89t-99 227q0 143 100 238.5t274 95.5q92 0 154 -32l79 19l7 -217h-32l-93 181q-46 24 -109 24q-96 0 -149.5 -82t-53.5 -219q0 -138 54 -219t141 -81q122 0 181 109q0 1 22 51q5 12 22 51h34l-28 -201l-47 1q-30 -13 -86.5 -24t-104.5 -11z" />
    <glyph glyph-name="D" unicode="D" horiz-adv-x="721" 
d="M330 20q85 0 134 80t49 198q0 304 -206 304h-45v-567zM19 17l36 4q43 7 43 18v549q0 6 -9.5 9t-42.5 7l-26 4l-3 17q62 1 165 1h157q170 0 261.5 -80.5t91.5 -228.5q0 -130 -103.5 -223.5t-253.5 -93.5h-319z" />
    <glyph glyph-name="E" unicode="E" horiz-adv-x="645" 
d="M19 17l36 4q43 7 43 18v549q0 6 -9.5 9t-42.5 7l-26 4l-3 17h557l4 -217h-32l-8 28q-24 99 -77.5 133.5t-144.5 32.5l-54 -2v-271h35q95 6 119 83l12 35h25l-29 -266l-24 1l-4 34q-6 47 -28 67t-80 22l-26 2v-282l72 -3q91 1 148 41t86 127l8 23h32l-20 -213h-572z" />
    <glyph glyph-name="F" unicode="F" horiz-adv-x="602" 
d="M19 17l36 4q43 7 43 18v549q0 6 -9.5 9t-42.5 7l-26 4l-3 17h551l3 -201h-32l-9 28q-33 90 -81.5 120t-136.5 30l-50 -3v-277l34 1q96 5 119 80l13 37h24l-29 -266h-24l-4 33q-4 48 -26.5 69.5t-81.5 21.5h-25v-261q0 -12 49 -16l41 -4l3 -17h-339z" />
    <glyph glyph-name="G" unicode="G" horiz-adv-x="737" 
d="M389 -17q-168 0 -263 92t-95 230q0 145 98 239t274 94q100 0 162 -32l80 19l2 -215h-34l-91 177q-38 27 -118 27q-93 0 -144 -83t-51 -218q0 -151 55 -228.5t132 -77.5q51 0 87 23v210q0 12 -64 16l-30 3l-3 18h333l-3 -18l-43 -4q-34 -3 -34 -14v-177l66 10l2 -12
q-58 -34 -148.5 -56.5t-169.5 -22.5z" />
    <glyph glyph-name="H" unicode="H" horiz-adv-x="765" 
d="M19 17l36 4q43 7 43 18v549q0 6 -9.5 9t-42.5 7l-26 4l-3 17h325l-3 -17l-35 -4q-43 -7 -43 -18v-256h243v258q0 6 -9 9t-42 7l-25 4l-3 17h324l-3 -17l-36 -4q-42 -7 -42 -18v-549q0 -6 9 -9t42 -7l27 -4l3 -17h-325l3 17l35 4q42 5 42 18v267h-243v-269q0 -6 9 -9
t42 -7l26 -4l3 -17h-325z" />
    <glyph glyph-name="I" unicode="I" horiz-adv-x="385" 
d="M29 17l39 4q43 4 43 18v549q0 6 -9.5 9t-42.5 7l-31 4l-3 17h334l-3 -17l-39 -4q-43 -4 -43 -18v-549q0 -6 9.5 -9t41.5 -7l31 -4l3 -17h-333z" />
    <glyph glyph-name="J" unicode="J" horiz-adv-x="384" 
d="M5 -177q-53 0 -86 24t-33 62q0 30 21.5 51t53.5 21q48 0 69 -43.5t-7 -89.5q87 11 87 213v527q0 6 -9.5 9.5t-40.5 6.5l-33 4l-3 17h332l-3 -17l-35 -4q-43 -7 -43 -18v-486q0 -92 -87.5 -184.5t-182.5 -92.5z" />
    <glyph glyph-name="K" unicode="K" horiz-adv-x="720" 
d="M19 17l36 4q43 7 43 18v549q0 6 -9.5 9t-42.5 7l-26 4l-3 17h327l-3 -17l-37 -4q-43 -4 -43 -18v-290l149 157q41 43 60.5 70.5t19 44t-14 24t-44.5 11.5l-23 5l-3 17h285l-3 -17l-36 -6q-44 -5 -76.5 -29.5t-104.5 -96.5l-17 -17l-28 -27l192 -321q32 -55 50.5 -71
t49.5 -20l13 -3l3 -17h-324l3 17l10 4q18 2 26 6.5t8.5 17t-9 32.5t-29.5 55l-105 186l-52 -52v-229q0 -6 9.5 -9t42.5 -7l27 -4l3 -17h-327z" />
    <glyph glyph-name="L" unicode="L" horiz-adv-x="592" 
d="M19 17l36 5q43 5 43 18v547q0 7 -9 10t-43 7l-26 4l-3 17h332l-3 -17l-42 -5q-43 -5 -43 -18v-559l35 -5q77 0 129 40.5t100 147.5l11 24h31l-28 -233h-523z" />
    <glyph glyph-name="M" unicode="M" horiz-adv-x="885" 
d="M14 17l27 3q40 4 53 21.5t15 70.5l13 448q-25 37 -69 43l-35 4l-3 18h280l141 -411h4l143 411h281l-3 -18l-52 -4q-40 -4 -40 -22l11 -495q0 -39 9 -49.5t40 -14.5l35 -5l3 -17h-343l3 17l48 5q21 2 28.5 15t6.5 51l-13 485h-4l-204 -567h-46l-193 545h-4l-10 -448
q-2 -48 11 -63.5t59 -19.5l29 -3l3 -17h-227z" />
    <glyph glyph-name="N" unicode="N" horiz-adv-x="720" 
d="M145 498h-3v-392q0 -49 16 -65t62 -20l31 -4l3 -17h-235l3 17l28 4q39 4 51.5 22.5t12.5 71.5l3 415q-40 61 -96 70l-19 8l-3 17h266l321 -392h4l-1 284q0 49 -16 67t-61 20l-30 4l-3 17h233l-3 -17l-28 -4q-38 -3 -51 -23.5t-13 -72.5l-3 -514h-49z" />
    <glyph glyph-name="O" unicode="O" horiz-adv-x="756" 
d="M383 12q84 0 124 70t40 227q0 303 -171 303q-86 0 -127 -70.5t-41 -226.5q0 -303 175 -303zM373 -13q-153 0 -247.5 89t-94.5 235q0 137 105 232t248 95q154 0 248 -90t94 -236q0 -138 -104.5 -231.5t-248.5 -93.5z" />
    <glyph glyph-name="P" unicode="P" horiz-adv-x="624" 
d="M300 305q55 0 89.5 41t34.5 105q0 148 -128 153l-34 -2v-292q3 0 16 -2.5t22 -2.5zM19 17l36 4q43 7 43 18v549q0 6 -9.5 9t-42.5 7l-26 4l-3 17h296q287 0 287 -160q0 -86 -80.5 -133.5t-214.5 -47.5q-25 0 -43 3v-250q0 -12 49 -16l37 -4l3 -17h-335z" />
    <glyph glyph-name="Q" unicode="Q" horiz-adv-x="754" 
d="M383 10q84 0 124 71t40 228q0 151 -44 227t-127 76q-86 0 -127 -71.5t-41 -228.5q0 -302 175 -302zM585 -182q-99 0 -158 38t-111 135q-131 18 -208 106.5t-77 213.5q0 135 105 230t248 95q156 0 249 -92t93 -232q0 -98 -61.5 -178t-159.5 -117q44 -101 101.5 -135.5
t164.5 -19.5l4 -17q-86 -27 -190 -27z" />
    <glyph glyph-name="R" unicode="R" horiz-adv-x="701" 
d="M291 326q69 2 106.5 37.5t37.5 102.5q0 65 -38 101t-104 37h-31v-275q2 0 13.5 -1.5t15.5 -1.5zM19 17l36 4q43 6 43 18v549q0 6 -9.5 9t-42.5 7l-26 4l-3 17l328 1q264 0 264 -154q0 -57 -39 -99t-111 -59l124 -203q30 -52 48 -69.5t48 -21.5l14 -3l4 -17h-239l-20 40
l-135 260q-4 1 -20 3.5t-21 4.5v-271q0 -13 49 -16l31 -4l3 -17h-329z" />
    <glyph glyph-name="S" unicode="S" horiz-adv-x="548" 
d="M261 -13q-119 0 -206 33l-15 183h31l51 -116q31 -38 64 -56t81 -18q61 0 92.5 28.5t31.5 78.5q0 30 -11.5 52t-38 38.5t-48 25.5t-62.5 23q-43 15 -70.5 28t-55 34t-41 50t-13.5 68q0 87 64.5 143t163.5 56q66 0 145 -24l47 15l3 -195h-28l-88 162q-36 17 -83 17
q-50 0 -80 -25t-30 -64q0 -23 9.5 -40.5t29 -30t40 -21.5t51.5 -20q11 -4 17 -6q45 -15 76 -29.5t59.5 -38t42.5 -57t14 -77.5q0 -92 -68.5 -154.5t-174.5 -62.5z" />
    <glyph glyph-name="T" unicode="T" horiz-adv-x="681" 
d="M177 17l40 4q43 4 43 18v565h-18q-61 -3 -105.5 -47t-68.5 -103l-10 -31h-33l21 202h598l8 -200h-29l-11 31q-21 56 -67.5 102t-100.5 46h-20v-567q0 -6 9 -9t42 -7l31 -4l3 -17h-335z" />
    <glyph glyph-name="U" unicode="U" horiz-adv-x="708" 
d="M364 -20q-270 0 -270 203v406q0 12 -50 15l-28 4l-3 17h326l-3 -17l-36 -4q-42 -4 -42 -17v-365q0 -86 40.5 -131t118.5 -45q88 0 128.5 46t40.5 148l-1 277q0 49 -16 67t-61 20l-31 4l-3 17h234l-3 -17l-27 -4q-38 -3 -51.5 -23t-13.5 -73l-1 -276q-2 -252 -248 -252z
" />
    <glyph glyph-name="V" unicode="V" horiz-adv-x="680" 
d="M107 503q-28 63 -43 80.5t-44 19.5l-26 4l-1 18h330l-1 -18l-28 -2q-42 -2 -45 -19t21 -70l141 -335h6l101 268q13 37 19 55t11 38.5t3 28.5t-8.5 16.5t-19 11.5t-32.5 5l-23 3l-3 18h227l-3 -18l-19 -3q-46 -6 -67 -33.5t-64 -142.5l-169 -431h-54z" />
    <glyph glyph-name="W" unicode="W" horiz-adv-x="998" 
d="M96 503q-24 60 -39.5 79t-43.5 21l-22 4l-3 18h334l-3 -18l-33 -2q-34 -2 -40 -17t7 -47l137 -366h5l102 282l-15 47q-19 54 -35.5 75.5t-42.5 23.5l-29 4l-3 18h343l-3 -18l-30 -2q-36 -2 -43.5 -16t6.5 -55l115 -351h5l84 247q16 45 23 67.5t10.5 45.5t-4 33t-22 17.5
t-41.5 10.5l-23 3l-4 18h234l-2 -18l-18 -4q-51 -8 -68 -33.5t-58 -139.5l-159 -441h-52l-151 432h-4l-161 -432h-54z" />
    <glyph glyph-name="X" unicode="X" horiz-adv-x="665" 
d="M0 17l39 6q24 4 47 23t41 42t66 89l76 97l-139 219q-50 80 -64 93q-15 13 -33 15l-34 7l-3 17h342l-3 -17l-25 -3q-31 -3 -36 -19t17 -54l80 -133h2l41 57q66 96 68 119q1 17 -23 23q-12 4 -37 6l-23 4l-3 17h241l-3 -17l-32 -6q-38 -6 -67 -35t-103 -128l-45 -58
l160 -257q35 -59 53 -79.5t39 -22.5l24 -5l3 -17h-331l2 17l25 3q63 6 22 70l-101 167h-2q1 0 -3 -5.5t-10.5 -15.5t-13.5 -19q-15 -22 -28 -39q-34 -48 -49.5 -76.5t-15 -46t13.5 -24.5t42 -10l23 -4l3 -17h-246z" />
    <glyph glyph-name="Y" unicode="Y" horiz-adv-x="651" 
d="M161 17l40 4q42 4 42 18v239l-133 235q-31 52 -46 68t-43 22l-17 4l-3 18h331l-3 -18l-17 -3q-41 -5 -50 -19t9 -45l118 -216h5l64 118q39 71 48.5 101.5t-3.5 43t-58 16.5l-24 4l-3 18h240l-3 -18l-27 -5q-40 -6 -64.5 -34t-82.5 -136l-73 -131v-264q0 -6 9 -9t41 -7
l30 -4l3 -17h-333z" />
    <glyph glyph-name="Z" unicode="Z" horiz-adv-x="628" 
d="M31 20l363 577v3l-84 1q-156 0 -209 -163l-9 -29h-32l6 216h519v-20l-376 -576v-3l88 -3q99 -6 155.5 38.5t105.5 161.5l11 26h32l-30 -249h-540v20z" />
    <glyph glyph-name="bracketleft" unicode="[" horiz-adv-x="325" 
d="M64 640h250v-22h-224v-827h224v-23h-250v872z" />
    <glyph glyph-name="backslash" unicode="\" horiz-adv-x="246" 
d="M-3 651h24l212 -877h-24z" />
    <glyph glyph-name="bracketright" unicode="]" horiz-adv-x="325" 
d="M11 -209h224v827h-224v22h250v-872h-250v23z" />
    <glyph glyph-name="asciicircum" unicode="^" horiz-adv-x="379" 
d="M178 692h23l139 -200h-18l-131 88h-2l-132 -88h-18z" />
    <glyph glyph-name="underscore" unicode="_" horiz-adv-x="453" 
d="M14 0h426l3 -36h-432z" />
    <glyph glyph-name="grave" unicode="`" horiz-adv-x="421" 
d="M35 683h144l106 -184h-24z" />
    <glyph glyph-name="a" unicode="a" 
d="M220 73q29 0 56 31l6 141q-66 -18 -93 -43.5t-27 -63.5q0 -30 15.5 -47.5t42.5 -17.5zM373 -13q-38 0 -62.5 24.5t-29.5 70.5l-3 1q-40 -48 -73 -71.5t-72 -23.5q-45 0 -77 29.5t-32 72.5q0 58 58.5 97.5t198.5 77.5l1 28q2 53 -24.5 87t-76.5 34q-53 0 -53 -20
q0 -1 16 -23t16 -39q0 -24 -19 -41.5t-48 -17.5q-28 0 -47 14.5t-19 39.5q0 52 78.5 89.5t160.5 37.5q87 0 125.5 -38.5t35.5 -124.5l-8 -176q-4 -54 35 -54q16 0 43 31l10 -11q-74 -94 -134 -94z" />
    <glyph glyph-name="b" unicode="b" horiz-adv-x="560" 
d="M296 7q38 0 60.5 52.5t22.5 134.5q0 78 -30 126.5t-80 48.5q-37 0 -72 -28v-252q54 -82 99 -82zM53 534q0 37 -7 49.5t-29 18.5l-26 10l1 13l205 55v-316l5 -2q28 38 68.5 63t83.5 25q76 0 129 -62t53 -154q0 -113 -76.5 -180.5t-177.5 -67.5q-58 0 -141 30h-1l-78 -38
h-9v556z" />
    <glyph glyph-name="c" unicode="c" horiz-adv-x="465" 
d="M240 -16q-93 0 -154.5 62t-61.5 159q0 108 71 178.5t181 70.5q74 0 121 -29.5t47 -75.5q0 -32 -19.5 -51t-49.5 -19q-33 0 -53 24.5t-17 57.5q0 12 10.5 28.5t10.5 17.5q-1 9 -14 15.5t-30 6.5q-46 0 -73.5 -45.5t-27.5 -129.5q0 -88 35.5 -136.5t101.5 -48.5
q80 0 122 77l11 -6q-56 -156 -211 -156z" />
    <glyph glyph-name="d" unicode="d" horiz-adv-x="570" 
d="M288 66q37 0 73 33v248q-51 81 -94 81q-41 0 -63.5 -51.5t-22.5 -134.5q0 -78 29.5 -127t77.5 -49zM361 74l-2 2q-28 -38 -70 -64t-84 -26q-76 0 -128.5 63t-52.5 155q0 113 76 179.5t179 66.5q48 0 81 -12l1 -1v1v106q0 37 -7 49.5t-27 18.5l-38 11l2 12l215 42v-570
q0 -37 6.5 -49.5t28.5 -18.5l28 -7l-2 -13l-206 -34v89z" />
    <glyph glyph-name="e" unicode="e" horiz-adv-x="478" 
d="M317 300q0 131 -59 131q-31 0 -53 -34.5t-27 -97.5zM240 -16q-93 0 -154.5 63.5t-61.5 161.5q0 105 71.5 176t176.5 71q83 0 131 -44.5t48 -105.5q0 -16 -3 -30q-21 0 -61 0.5t-59 1.5q-37 0 -90.5 1.5t-59.5 1.5q-1 -9 -1 -34q0 -80 39 -129t104 -49q81 0 123 77l12 -6
q-55 -156 -215 -156z" />
    <glyph glyph-name="f" unicode="f" horiz-adv-x="357" 
d="M24 17l19 1q23 2 31 5.5t8 11.5v336l-79 3l21 62l58 -1l3 67q4 71 74 121t157 50q56 0 84 -19.5t28 -51.5q0 -26 -19.5 -44.5t-46.5 -18.5q-30 0 -47.5 20.5t-28.5 70.5l-2 7l-23 6q-19 -9 -26.5 -34t-7.5 -93v-80h131l-13 -62h-118v-340q0 -7 8.5 -10.5t37.5 -5.5l33 -1
l3 -17h-288z" />
    <glyph glyph-name="g" unicode="g" horiz-adv-x="507" 
d="M239 179q33 0 47 28t14 96q0 129 -61 129q-31 0 -44.5 -29t-13.5 -99q0 -125 58 -125zM259 -211q60 0 98 28.5t38 71.5q0 37 -24.5 52.5t-80.5 19.5q-23 3 -133 -2q-37 -17 -37 -75q0 -42 37 -68.5t102 -26.5zM132 -38q-45 6 -76 34t-31 64q0 38 33 68t80 43v1
q-96 34 -96 127q0 62 56.5 108.5t141.5 46.5q77 0 124 -29l146 16l-8 -64l-100 15l-1 -3q35 -30 35 -78q0 -67 -56.5 -109.5t-146.5 -42.5q-37 0 -69 6q-20 -5 -32 -17.5t-12 -27.5q0 -35 76 -35q15 0 69 1.5t73 1.5q67 0 109 -35.5t42 -94.5q0 -82 -80.5 -140.5
t-201.5 -58.5q-194 0 -194 100q0 20 9 35.5t29.5 28.5t35.5 20t45 19z" />
    <glyph glyph-name="h" unicode="h" horiz-adv-x="571" 
d="M14 17l14 1q25 2 32.5 5t7.5 12v498q0 36 -6.5 48.5t-27.5 18.5l-28 11l2 12l207 56v-312h1q103 87 173 87q47 0 83 -36q33 -34 33 -119v-264q0 -6 8.5 -9t40.5 -8l11 -1l3 -17h-259l3 17l17 1q16 1 23 4t8 5.5t1 7.5v235q0 53 -19.5 73t-58.5 20t-70 -20v-162v-147
q0 -7 7 -10.5t32 -5.5l16 -1l3 -17h-260z" />
    <glyph glyph-name="i" unicode="i" horiz-adv-x="302" 
d="M146 505q-38 0 -62 25.5t-24 59.5t24 59t62 25q39 0 63 -25t24 -59q0 -35 -24 -60t-63 -25zM25 17l14 1q24 2 32 5.5t8 11.5v262q0 45 -7.5 58.5t-34.5 21.5l-20 5l1 13l206 58v-419q0 -7 8 -9.5t40 -6.5l9 -1l3 -17h-262z" />
    <glyph glyph-name="j" unicode="j" horiz-adv-x="290" 
d="M143 505q-38 0 -62.5 25.5t-24.5 59.5t24.5 59t62.5 25t62 -25t24 -59t-24 -59.5t-62 -25.5zM-12 -257q-44 0 -69 20t-25 53q0 26 19 44.5t46 18.5q43 0 58 -36.5t-8 -68.5q37 0 51.5 49t14.5 143v331q0 45 -7.5 58.5t-34.5 21.5l-21 5l1 13l207 58v-469
q-2 -73 -78.5 -157t-153.5 -84z" />
    <glyph glyph-name="k" unicode="k" horiz-adv-x="556" 
d="M17 17l13 1q24 3 31 6t7 11v498q0 36 -6.5 48.5t-27.5 18.5l-28 11l2 12l206 56v-461l45 38q60 56 82.5 83t22.5 45q0 17 -12.5 25.5t-49.5 11.5l-11 1l-3 18h252l-3 -18l-18 -3q-40 -7 -73.5 -26.5t-89.5 -73.5l-3 -3l-2 -4l125 -230q20 -37 32 -48t34 -15l13 -2l3 -17
h-206l-19 40l-89 178l-30 -26v-158q0 -7 8 -10t36 -6l16 -1l1 -17h-261z" />
    <glyph glyph-name="l" unicode="l" horiz-adv-x="293" 
d="M24 17l14 1q22 2 28.5 5t6.5 12v498q0 35 -7 48t-28 19l-26 11l2 12l205 56v-645q0 -12 41 -16l12 -1l3 -17h-255z" />
    <glyph glyph-name="m" unicode="m" horiz-adv-x="861" 
d="M23 17l14 1q24 2 32 5.5t8 11.5v262q0 45 -7.5 58.5t-34.5 21.5l-20 5l1 13l208 58l-2 -87h2q92 88 169 88q47 0 82 -35q20 -22 28 -54l5 -1q96 90 173 90q46 0 82 -36q34 -34 34 -146v-237q0 -4 2 -6.5t13 -5.5t33 -5l11 -1l3 -17h-259l3 17l17 1q16 1 23 4t8 5.5t1 7.5
v233q0 53 -20 74t-60 21q-49 0 -62 -26v-61v-243q0 -6 7 -8.5t34 -6.5l13 -1l3 -17h-255l3 17l17 1q33 3 33 17v233q0 53 -20.5 74t-60.5 21q-28 0 -62 -18v-95v-216q0 -7 7 -10.5t33 -5.5l14 -1l3 -17h-259z" />
    <glyph glyph-name="n" unicode="n" horiz-adv-x="579" 
d="M23 17l14 1q24 2 32 5.5t8 11.5v262q0 45 -7.5 58.5t-34.5 21.5l-20 5l1 13l208 58l-2 -86h2q103 87 174 87q46 0 82 -36q34 -34 34 -119v-264q0 -6 8.5 -9t40.5 -8l11 -1l3 -17h-260l3 17l16 1q16 1 24 4t9 5.5t1 7.5v233q0 54 -20 74.5t-59 20.5q-40 0 -69 -20v-162
v-147q0 -7 7 -10.5t32 -5.5l16 -1l2 -17h-259z" />
    <glyph glyph-name="o" unicode="o" horiz-adv-x="548" 
d="M272 7q45 0 69.5 56t24.5 148q0 157 -46 203q-17 17 -45 17q-46 0 -70.5 -53t-24.5 -148q0 -156 45 -206q17 -17 47 -17zM268 -14q-112 0 -178 67t-66 166t72 167t184 68t178 -66.5t66 -164.5q0 -101 -71.5 -169t-184.5 -68z" />
    <glyph glyph-name="p" unicode="p" horiz-adv-x="571" 
d="M307 7q38 0 60.5 52t22.5 135q0 78 -29.5 125.5t-80.5 47.5q-38 0 -71 -26v-253q24 -38 50.5 -59.5t47.5 -21.5zM4 -234l21 2q13 1 18 2t11.5 2.5t8 4.5t1.5 7v513q0 45 -7 58.5t-34 21.5l-21 5l1 13l207 58l-2 -89l4 -2q69 88 153 88q76 0 128.5 -62t52.5 -154
q0 -113 -75 -180.5t-174 -67.5q-52 0 -85 14h-3v-218q0 -13 47 -14l34 -2l3 -17h-292z" />
    <glyph glyph-name="q" unicode="q" horiz-adv-x="564" 
d="M288 66q37 0 73 33v249q-51 80 -94 80q-41 0 -63.5 -51t-22.5 -134q0 -77 30 -127t77 -50zM280 -234l36 2q45 1 45 14v292l-2 2q-28 -38 -70 -64t-84 -26q-76 0 -128.5 63t-52.5 155q0 115 75.5 181t179.5 66q66 0 138 -31h1l81 37h7v-674q0 -8 7.5 -10.5t33.5 -4.5
l19 -2l2 -17h-291z" />
    <glyph glyph-name="r" unicode="r" horiz-adv-x="441" 
d="M24 17l13 1q24 2 32 5.5t8 11.5v262q0 45 -7.5 58.5t-34.5 21.5l-20 5l1 13l208 58l-2 -148h3q25 74 57 111.5t78 37.5q36 0 58 -21t22 -59q0 -27 -19.5 -48.5t-47.5 -21.5q-56 0 -77 62q-41 -10 -74 -113v-218q0 -14 50 -17l18 -1l3 -17h-272z" />
    <glyph glyph-name="s" unicode="s" horiz-adv-x="414" 
d="M192 -14q-96 0 -162 27l-3 128l28 -2l27 -56q28 -41 52 -58.5t61 -17.5q38 0 58.5 19t20.5 52q0 14 -6.5 25.5t-14.5 19t-25 16.5t-28 13.5t-33 12.5q-34 14 -54.5 24t-42 26.5t-31.5 39t-10 52.5q0 67 49.5 106.5t130.5 39.5q56 0 104 -16l49 9l5 -142l-26 -1l-76 112
q-28 16 -57 16q-32 0 -51 -17.5t-19 -48.5q0 -16 5.5 -27t23 -22t26.5 -15t39 -16q4 -2 6.5 -3t5.5 -2q33 -13 52.5 -22.5t43.5 -26.5t35.5 -41t11.5 -55q0 -63 -50 -106t-145 -43z" />
    <glyph glyph-name="t" unicode="t" horiz-adv-x="380" 
d="M211 -12q-136 0 -133 147l4 236l-81 3l26 50l89 67l82 63l22 -1l-1 -117h153l-13 -62h-141l-3 -210q-1 -57 18 -80.5t60 -23.5q47 0 81 27l4 -13q-79 -86 -167 -86z" />
    <glyph glyph-name="u" unicode="u" horiz-adv-x="561" 
d="M355 74h-3q-99 -88 -174 -88q-40 0 -79 37q-38 39 -33 120l2 264q0 8 -50 14l-15 1l-3 17h214l-3 -268q-1 -52 19.5 -73t59.5 -21q28 0 64 20v162v146q0 8 -8.5 11t-39.5 5l-15 1l-4 17h211v-318q0 -36 6.5 -49t28.5 -19l28 -7l-2 -12l-206 -50z" />
    <glyph glyph-name="v" unicode="v" 
d="M60 372q-12 26 -21.5 35t-30.5 12l-17 4l-3 17h283l-2 -17l-22 -5q-27 -3 -34 -12t1 -30l94 -241l65 172q22 64 16.5 84t-43.5 26l-23 6l-3 17h185l-3 -17l-19 -4q-30 -6 -42.5 -23.5t-41.5 -89.5l-122 -316h-58z" />
    <glyph glyph-name="w" unicode="w" horiz-adv-x="770" 
d="M59 370q-12 28 -21 37t-30 11l-17 4l-2 17h268l-2 -17l-23 -4q-35 -4 -20 -43l88 -243l72 199l-14 40q-17 41 -50 47l-19 4l-2 17h272l-2 -17l-22 -4q-23 -4 -27 -13t4 -30l81 -235l54 164q22 59 15 82.5t-47 29.5l-20 6l-3 17h184l-3 -17l-21 -5q-29 -4 -41 -21.5
t-37 -89.5l-110 -316h-60l-119 309l-116 -309h-59z" />
    <glyph glyph-name="x" unicode="x" horiz-adv-x="511" 
d="M2 17l20 5q35 8 54 25t69 78l55 65l-106 164q-40 60 -75 64l-17 4l-3 17h286l-3 -17l-15 -2q-40 -6 -12 -50l55 -90h2l31 39q46 60 45.5 78.5t-48.5 22.5l-11 2l-3 17h188l-3 -17l-22 -6q-33 -8 -54.5 -26t-67.5 -75l-43 -52l115 -178q35 -57 69 -64l16 -4l4 -17h-280
l2 17l15 2q24 2 26 15.5t-13 33.5l-64 105h-2l-42 -53q-32 -40 -40.5 -60.5t1.5 -29t43 -11.5l10 -2l2 -17h-187z" />
    <glyph glyph-name="y" unicode="y" 
d="M107 -258q-31 0 -54.5 18.5t-23.5 51.5q0 26 18 45.5t47 19.5q30 0 49 -18.5t22 -43.5q18 5 29 21t26 55l32 87h-17l-175 393q-12 26 -22 34.5t-32 12.5l-17 4l-3 17h281l-3 -17l-22 -4q-26 -4 -32 -13t4 -29l98 -236l61 169q21 62 15 81.5t-46 25.5l-21 6l-3 17h185
l-3 -17l-22 -4q-27 -2 -40.5 -21t-39.5 -90l-110 -293l-49 -141q-23 -69 -55 -100t-77 -31z" />
    <glyph glyph-name="z" unicode="z" horiz-adv-x="475" 
d="M21 15l251 402l-42 -2q-60 -3 -92 -24.5t-51 -66.5l-28 -63h-23v178h405v-15l-260 -401l48 1q131 7 181 115l22 43h23l-33 -182h-401v15z" />
    <glyph glyph-name="braceleft" unicode="{" horiz-adv-x="346" 
d="M331 -250q-106 8 -174 58t-68 115q0 34 29.5 103t29.5 87q0 37 -26 53.5t-99 24.5l-5 14l5 15q71 8 98 25t27 53q0 18 -29.5 87t-29.5 103q0 65 68 115t174 58l2 -16q-59 -8 -91 -32t-32 -57q0 -28 29.5 -101t29.5 -109q0 -60 -47.5 -94.5t-162.5 -43.5v-5
q117 -12 163.5 -44.5t46.5 -93.5q0 -35 -29.5 -109t-29.5 -102q0 -33 32 -56.5t91 -31.5z" />
    <glyph glyph-name="bar" unicode="|" horiz-adv-x="189" 
d="M84 666h22v-877h-22v877z" />
    <glyph glyph-name="braceright" unicode="}" horiz-adv-x="346" 
d="M13 -234q59 8 91.5 31.5t32.5 56.5q0 28 -29.5 102t-29.5 109q0 61 46.5 93.5t162.5 44.5v5q-115 9 -162 43.5t-47 94.5q0 36 29.5 109t29.5 101q0 33 -32.5 57t-91.5 32l3 16q106 -8 174 -58t68 -115q0 -34 -30 -103t-30 -87q0 -36 27.5 -53t98.5 -25l4 -15l-4 -14
q-73 -8 -99.5 -25t-26.5 -53q0 -18 30 -87t30 -103q0 -65 -68 -115t-174 -58z" />
    <glyph glyph-name="asciitilde" unicode="~" horiz-adv-x="407" 
d="M282 153q-33 0 -101 32.5t-88 32.5q-15 0 -24.5 -11t-14.5 -45h-22q6 81 26.5 112t66.5 31q33 0 100 -32.5t87 -32.5q17 0 27 11t15 44h20q-6 -81 -26 -111.5t-66 -30.5z" />
    <glyph glyph-name="nbspace" unicode="&#xa0;" horiz-adv-x="139" 
 />
    <glyph glyph-name="exclamdown" unicode="&#xa1;" horiz-adv-x="293" 
d="M147 488q-31 0 -53 22.5t-22 52.5q0 31 22 53t53 22q32 0 54 -22t22 -53t-22 -53t-54 -22zM146 -13q-48 0 -66.5 21t-11.5 54l71 356q2 7 8 7.5t8 -7.5l70 -356q7 -33 -11 -54t-66 -21h-2z" />
    <glyph glyph-name="cent" unicode="&#xa2;" horiz-adv-x="459" 
d="M318 418q-19 12 -36 12q-46 0 -73.5 -46t-27.5 -130q0 -107 53 -154zM205 -13q-79 12 -130 73.5t-51 147.5q0 108 71.5 178t180.5 70q23 0 50 -5l42 162h24l-45 -166q45 -11 71 -37.5t26 -60.5q0 -30 -18.5 -49.5t-47.5 -19.5q-44 0 -62 43l-62 -236q28 -18 65 -18
q80 0 122 76l13 -4q-27 -73 -82 -115t-131 -42q-10 0 -13 1l-37 -144h-23z" />
    <glyph glyph-name="sterling" unicode="&#xa3;" horiz-adv-x="583" 
d="M198 63q-3 2 -12.5 8t-12.5 8t-11.5 7.5t-12 7.5t-11 6t-11.5 5.5t-10 4t-11 3.5t-10.5 2t-10.5 1q-63 0 -63 -54q0 -26 18.5 -42t47.5 -16q62 0 110 59zM68 290l3 23h105q-33 78 -33 113q0 94 75.5 149t187.5 55q144 0 144 -101q0 -28 -20.5 -49t-50.5 -21
q-49 0 -66.5 47t11.5 87q-11 16 -45 16q-38 0 -60 -30t-22 -93q0 -17 9 -76t11 -97h129l3 -23h-131v-10q0 -63 -36 -140q115 -41 164 -41q48 0 71 24t33 89l15 -3q2 -91 -44 -158t-121 -67q-80 0 -180 65q-62 -65 -133 -65q-38 0 -62.5 23t-24.5 60q0 48 38.5 78t98.5 30
q43 0 94 -17q-1 36 -44 132h-119z" />
    <glyph glyph-name="currency" unicode="&#xa4;" horiz-adv-x="531" 
d="M315 -13q-98 0 -163.5 64t-84.5 178h-64l3 23h58q-2 10 -2 45q0 37 5 61h-64l3 23h65q24 110 102.5 179t178.5 69q76 0 118.5 -25.5t42.5 -73.5q0 -27 -21.5 -47.5t-51.5 -20.5q-48 0 -66 46t14 88q-22 10 -40 10q-56 0 -89.5 -62t-42.5 -163h184l3 -23h-189
q-1 -11 -1 -32q0 -40 6 -74h181l3 -23h-178q41 -156 164 -156q85 0 130 76l10 -6q-27 -73 -83 -114.5t-131 -41.5z" />
    <glyph glyph-name="yen" unicode="&#xa5;" horiz-adv-x="635" 
d="M154 18l44 6q40 4 40 18v108h-183l3 22h181v107h-182l-1 23h171q-29 53 -62 107q-11 18 -33 56t-30 51q-29 49 -47.5 66.5t-48.5 19.5l-21 5l-4 18h347l-3 -18l-25 -3q-68 -3 -27 -78l113 -218h2l32 61q26 50 41 82.5t24 59.5t9.5 42.5t-7 27t-22 16.5t-39.5 8l-21 3
l-4 17h252l-3 -17l-19 -4q-35 -7 -67 -39t-69 -101q-6 -11 -21 -39t-22 -42q-10 -17 -21 -38t-17 -32l-6 -11h182l-1 -23h-186v-107h185l3 -22h-187v-110q0 -7 9 -10.5t38 -6.5l37 -5l3 -18h-340z" />
    <glyph glyph-name="section" unicode="&#xa7;" horiz-adv-x="450" 
d="M336 192q26 19 26 44q0 35 -32 58t-99 48q-91 40 -115 57q-26 -21 -26 -43q0 -19 8 -34t30.5 -29t37.5 -21t53 -24q82 -32 117 -56zM205 -50q-67 0 -107 22.5t-40 63.5q0 25 16.5 43.5t42.5 18.5q44 0 63.5 -33t1.5 -83q30 -10 46 -10q28 0 49 19t21 43q0 32 -32 54.5
t-95 47.5q-38 16 -58 26.5t-48 29t-40.5 41.5t-12.5 52q0 68 91 123q-39 34 -39 84q0 65 56 106t122 41q67 0 105.5 -22t38.5 -63q0 -26 -17 -44t-43 -18q-41 0 -58.5 33.5t-7.5 82.5q-26 10 -41 10q-28 0 -46.5 -18.5t-18.5 -42.5q0 -33 32.5 -55.5t93.5 -46.5
q37 -15 59 -26t48.5 -29.5t39.5 -42t13 -52.5q0 -67 -92 -122q40 -35 40 -84q0 -64 -59 -106.5t-124 -42.5z" />
    <glyph glyph-name="dieresis" unicode="&#xa8;" horiz-adv-x="410" 
d="M312 509q-31 0 -49 19.5t-18 47.5t18 48.5t49 20.5t49.5 -20.5t18.5 -48.5t-18 -47.5t-50 -19.5zM98 509q-31 0 -50 20t-19 47q0 28 19 48.5t50 20.5t49.5 -20.5t18.5 -48.5t-18 -47.5t-50 -19.5z" />
    <glyph glyph-name="copyright" unicode="&#xa9;" horiz-adv-x="733" 
d="M381 114q-103 0 -161.5 56.5t-58.5 139.5q0 84 61 141.5t162 57.5q57 0 92 -20l47 12l4 -131h-19l-56 104q-25 21 -67 21q-57 0 -88.5 -48.5t-31.5 -132.5q0 -82 33.5 -134t85.5 -52q70 0 106 68l27 61h20l-16 -120h-28q-50 -23 -112 -23zM367 -9q132 0 225.5 94.5
t93.5 226.5q0 133 -93.5 228t-225.5 95t-226 -95t-94 -228q0 -132 94 -226.5t226 -94.5zM367 -28q-142 0 -241 99.5t-99 240.5t99.5 241.5t240.5 100.5t240.5 -100.5t99.5 -241.5t-99.5 -240.5t-240.5 -99.5z" />
    <glyph glyph-name="ordfeminine" unicode="&#xaa;" horiz-adv-x="385" 
d="M174 342q23 0 47 22l4 105q-90 -21 -90 -77q0 -23 11.5 -36.5t27.5 -13.5zM108 279q-34 0 -58 22t-24 54q0 44 45.5 74t153.5 56v30q1 40 -19.5 65t-58.5 25q-14 0 -24 -3.5t-13 -7t-3 -5.5t9 -18t9 -28q0 -20 -14.5 -33t-37.5 -13t-38.5 11.5t-15.5 32.5q0 40 68 68
t130 28q66 0 95 -30t26 -95l-6 -129q-2 -47 26 -47q17 0 37 16l3 -10q-50 -63 -102 -63q-60 0 -73 69h-2q-58 -69 -113 -69z" />
    <glyph glyph-name="guillemotleft" unicode="&#xab;" horiz-adv-x="476" 
d="M14 205v35l226 162l6 -7l-105 -174l105 -173l-6 -7zM222 205v35l237 173l6 -8l-122 -184l121 -183l-6 -7z" />
    <glyph glyph-name="registered" unicode="&#xae;" horiz-adv-x="733" 
d="M352 319q36 0 57 22t21 63t-27 62.5t-68 19.5h-24v-158q15 -7 41 -9zM166 139l23 2q25 4 25 11v320q0 8 -29 11l-19 4l-2 15h189q179 0 179 -96q0 -35 -25.5 -61.5t-68.5 -37.5l72 -114q16 -29 30 -38.5t37 -13.5l7 -2l3 -16h-152l-11 22l-84 157q-3 1 -14 4t-15 5v-161
q0 -5 27 -8l21 -3l3 -16h-199zM367 -8q132 0 226 94.5t94 226.5q0 133 -94 228t-226 95t-226 -95t-94 -228q0 -132 94 -226.5t226 -94.5zM367 -27q-142 0 -241 99.5t-99 240.5q0 142 99 241.5t241 99.5q141 0 240.5 -99.5t99.5 -241.5q0 -141 -99.5 -240.5t-240.5 -99.5z
" />
    <glyph glyph-name="macron" unicode="&#xaf;" horiz-adv-x="378" 
d="M60 595h272l-11 -65h-277z" />
    <glyph glyph-name="degree" unicode="&#xb0;" horiz-adv-x="322" 
d="M161 386q52 0 83.5 34t31.5 84t-32 84.5t-83 34.5t-82.5 -34.5t-31.5 -84.5t31 -84t83 -34zM161 366q-61 0 -99 40t-38 98q0 59 37.5 99t99.5 40t99.5 -40t37.5 -99q0 -58 -37.5 -98t-99.5 -40z" />
    <glyph glyph-name="plusminus" unicode="&#xb1;" horiz-adv-x="370" 
d="M42 19l30 4q12 1 18 2t12 3t8.5 5t2.5 7v404q0 13 -46 16l-28 4l-3 19h303l-3 -19l-30 -4q-41 -5 -41 -17v-404q0 -13 46 -16l28 -4l3 -19h-303z" />
    <glyph glyph-name="acute" unicode="&#xb4;" horiz-adv-x="421" 
d="M242 683h143l-225 -184h-24z" />
    <glyph glyph-name="paragraph" unicode="&#xb6;" horiz-adv-x="446" 
d="M363 241q-32 -5 -72 -5q-121 0 -194 50.5t-73 138.5q0 100 69.5 150t223.5 50h76v-657h-30v273z" />
    <glyph glyph-name="periodcentered" unicode="&#xb7;" horiz-adv-x="231" 
d="M115 165q-33 0 -56 23.5t-23 56.5q0 32 23 54.5t56 22.5q31 0 54.5 -23.5t23.5 -53.5q0 -33 -23 -56.5t-55 -23.5z" />
    <glyph glyph-name="cedilla" unicode="&#xb8;" horiz-adv-x="404" 
d="M94 -265q80 12 118.5 32t38.5 54q0 26 -24.5 39.5t-61.5 13.5q-43 0 -79 -12v12l123 129h24l-63 -65q68 8 115 -16.5t47 -68.5q0 -106 -233 -130z" />
    <glyph glyph-name="ordmasculine" unicode="&#xba;" horiz-adv-x="420" 
d="M209 291q34 0 51.5 42.5t17.5 114.5q0 121 -34 155q-15 15 -35 15q-35 0 -53 -42t-18 -114q0 -120 37 -159q12 -12 34 -12zM207 273q-86 0 -137.5 52t-51.5 127q0 77 54.5 130.5t140.5 53.5q85 0 136.5 -52t51.5 -126q0 -79 -53.5 -132t-140.5 -53z" />
    <glyph glyph-name="guillemotright" unicode="&#xbb;" horiz-adv-x="474" 
d="M234 48l104 173l-103 173l4 8l226 -162v-35l-226 -164zM15 38l120 183l-119 184l5 8l238 -173v-35l-238 -174z" />
    <glyph glyph-name="questiondown" unicode="&#xbf;" horiz-adv-x="367" 
d="M193 487q-31 0 -53.5 22.5t-22.5 52.5q0 31 22 53.5t54 22.5q30 0 52.5 -22t22.5 -54q0 -31 -22.5 -53t-52.5 -22zM253 -14q-92 0 -155 68.5t-63 159.5q0 54 19.5 80t64.5 42q57 18 76.5 28t19.5 24q0 22 -35 51l17 6q39 -25 65 -58.5t26 -62.5q0 -66 -129 -96
q-51 -14 -72 -26t-21 -27q0 -29 43 -47t106 -18q35 0 90 12q32 -20 36 -59q2 -35 -20 -56t-68 -21z" />
    <glyph glyph-name="Agrave" unicode="&#xc0;" horiz-adv-x="680" 
d="M153 176q-33 -99 -31 -120q2 -23 36 -30q10 -3 26 -5l21 -3l3 -18h-225l3 18l18 3q48 8 66.5 33.5t62.5 142.5l117 322l-9 37q33 9 67 33t47 54h24l183 -513q23 -62 42.5 -83t49.5 -25l26 -4l2 -18h-340l3 18l23 3q35 3 39.5 21.5t-13.5 67.5l-45 132h-173zM266 485h-4
l-77 -219h156zM125 850h144l106 -184h-24z" />
    <glyph glyph-name="Aacute" unicode="&#xc1;" horiz-adv-x="680" 
d="M153 176q-33 -99 -31 -120q2 -23 36 -30q10 -3 26 -5l21 -3l3 -18h-225l3 18l18 3q48 8 66.5 33.5t62.5 142.5l117 322l-9 37q33 9 67 33t47 54h24l183 -513q23 -62 42.5 -83t49.5 -25l26 -4l2 -18h-340l3 18l23 3q35 3 39.5 21.5t-13.5 67.5l-45 132h-173zM266 485h-4
l-77 -219h156zM378 850h143l-225 -184h-24z" />
    <glyph glyph-name="Acircumflex" unicode="&#xc2;" horiz-adv-x="680" 
d="M153 176q-33 -99 -31 -120q2 -23 36 -30q10 -3 26 -5l21 -3l3 -18h-225l3 18l18 3q48 8 66.5 33.5t62.5 142.5l117 322l-9 37q33 9 67 33t47 54h24l183 -513q23 -62 42.5 -83t49.5 -25l26 -4l2 -18h-340l3 18l23 3q35 3 39.5 21.5t-13.5 67.5l-45 132h-173zM266 485h-4
l-77 -219h156zM328 859h23l139 -200h-18l-131 88h-2l-132 -88h-18z" />
    <glyph glyph-name="Atilde" unicode="&#xc3;" horiz-adv-x="680" 
d="M153 176q-33 -99 -31 -120q2 -23 36 -30q10 -3 26 -5l21 -3l3 -18h-225l3 18l18 3q48 8 66.5 33.5t62.5 142.5l117 322l-9 37q33 9 67 33t47 54h24l183 -513q23 -62 42.5 -83t49.5 -25l26 -4l2 -18h-340l3 18l23 3q35 3 39.5 21.5t-13.5 67.5l-45 132h-173zM266 485h-4
l-77 -219h156zM419 673q-33 0 -101 32.5t-88 32.5q-15 0 -24.5 -11t-14.5 -45h-22q6 81 26.5 112t66.5 31q33 0 100 -32.5t87 -32.5q17 0 27 11t15 44h20q-6 -81 -26 -111.5t-66 -30.5z" />
    <glyph glyph-name="Adieresis" unicode="&#xc4;" horiz-adv-x="680" 
d="M153 176q-33 -99 -31 -120q2 -23 36 -30q10 -3 26 -5l21 -3l3 -18h-225l3 18l18 3q48 8 66.5 33.5t62.5 142.5l117 322l-9 37q33 9 67 33t47 54h24l183 -513q23 -62 42.5 -83t49.5 -25l26 -4l2 -18h-340l3 18l23 3q35 3 39.5 21.5t-13.5 67.5l-45 132h-173zM266 485h-4
l-77 -219h156zM446 676q-31 0 -49 19.5t-18 47.5t18 48.5t49 20.5t49.5 -20.5t18.5 -48.5t-18 -47.5t-50 -19.5zM232 676q-31 0 -50 20t-19 47q0 28 19 48.5t50 20.5t49.5 -20.5t18.5 -48.5t-18 -47.5t-50 -19.5z" />
    <glyph glyph-name="Aring" unicode="&#xc5;" horiz-adv-x="680" 
d="M335 622q34 0 55 23t21 55q0 33 -21 56t-55 23q-35 0 -55.5 -22.5t-20.5 -56.5q0 -32 20.5 -55t55.5 -23zM176 242l-23 -66q-33 -99 -31 -120q2 -23 36 -30q10 -3 26 -5l21 -3l3 -18h-225l3 18l18 3q48 8 68 34.5t61 141.5l153 421q-46 24 -46 82q0 41 25.5 68.5
t69.5 27.5q43 0 68.5 -27.5t25.5 -68.5q0 -55 -41 -79l174 -491q23 -62 42.5 -83t49.5 -25l26 -4l2 -18h-340l3 18l23 3q35 3 39.5 21.5t-13.5 67.5l-45 132h-173zM341 266l-75 219h-4l-77 -219h156z" />
    <glyph glyph-name="AE" unicode="&#xc6;" horiz-adv-x="912" 
d="M373 271v323h-3l-164 -323h167zM-40 18l33 4q34 7 65 40.5t81 133.5l178 350q14 28 5 41.5t-53 17.5l-40 4l-3 16h613l5 -217h-32l-8 28q-24 98 -78 133t-144 33l-47 -2v-271h28q95 6 119 83l12 35h25l-30 -266l-23 1l-4 34q-6 47 -28 67t-80 22l-19 2v-282l65 -3
q91 1 148 41t86 127l8 23h32l-20 -213h-572l3 17l48 6q40 5 40 19v206h-180l-38 -77q-40 -80 -34 -112t52 -38l26 -3l3 -18h-245z" />
    <glyph glyph-name="Ccedilla" unicode="&#xc7;" horiz-adv-x="702" 
d="M390 -12q-164 2 -261.5 90t-97.5 226q0 143 100 238.5t274 95.5q92 0 154 -32l79 19l7 -217h-32l-93 181q-46 24 -109 24q-96 0 -149.5 -82t-53.5 -219q0 -138 54 -219t141 -81q122 0 181 109q0 1 22 51q5 12 22 51h34l-28 -201l-47 1q-76 -31 -173 -35l-49 -50
q68 8 115 -16.5t47 -68.5q0 -106 -233 -130l-5 12q80 12 118.5 32t38.5 54q0 26 -24.5 39.5t-61.5 13.5q-43 0 -79 -12v12z" />
    <glyph glyph-name="Egrave" unicode="&#xc8;" horiz-adv-x="645" 
d="M19 17l36 4q43 7 43 18v549q0 6 -9.5 9t-42.5 7l-26 4l-3 17h557l4 -217h-32l-8 28q-24 99 -77.5 133.5t-144.5 32.5l-54 -2v-271h35q95 6 119 83l12 35h25l-29 -266l-24 1l-4 34q-6 47 -28 67t-80 22l-26 2v-282l72 -3q91 1 148 41t86 127l8 23h32l-20 -213h-572z
M143 850h144l106 -184h-24z" />
    <glyph glyph-name="Eacute" unicode="&#xc9;" horiz-adv-x="645" 
d="M19 17l36 4q43 7 43 18v549q0 6 -9.5 9t-42.5 7l-26 4l-3 17h557l4 -217h-32l-8 28q-24 99 -77.5 133.5t-144.5 32.5l-54 -2v-271h35q95 6 119 83l12 35h25l-29 -266l-24 1l-4 34q-6 47 -28 67t-80 22l-26 2v-282l72 -3q91 1 148 41t86 127l8 23h32l-20 -213h-572z
M354 850h143l-225 -184h-24z" />
    <glyph glyph-name="Ecircumflex" unicode="&#xca;" horiz-adv-x="645" 
d="M19 17l36 4q43 7 43 18v549q0 6 -9.5 9t-42.5 7l-26 4l-3 17h557l4 -217h-32l-8 28q-24 99 -77.5 133.5t-144.5 32.5l-54 -2v-271h35q95 6 119 83l12 35h25l-29 -266l-24 1l-4 34q-6 47 -28 67t-80 22l-26 2v-282l72 -3q91 1 148 41t86 127l8 23h32l-20 -213h-572z
M318 859h23l139 -200h-18l-131 88h-2l-132 -88h-18z" />
    <glyph glyph-name="Edieresis" unicode="&#xcb;" horiz-adv-x="645" 
d="M19 17l36 4q43 7 43 18v549q0 6 -9.5 9t-42.5 7l-26 4l-3 17h557l4 -217h-32l-8 28q-24 99 -77.5 133.5t-144.5 32.5l-54 -2v-271h35q95 6 119 83l12 35h25l-29 -266l-24 1l-4 34q-6 47 -28 67t-80 22l-26 2v-282l72 -3q91 1 148 41t86 127l8 23h32l-20 -213h-572z
M437 676q-31 0 -49 19.5t-18 47.5t18 48.5t49 20.5t49.5 -20.5t18.5 -48.5t-18 -47.5t-50 -19.5zM223 676q-31 0 -50 20t-19 47q0 28 19 48.5t50 20.5t49.5 -20.5t18.5 -48.5t-18 -47.5t-50 -19.5z" />
    <glyph glyph-name="Igrave" unicode="&#xcc;" horiz-adv-x="385" 
d="M29 17l39 4q43 4 43 18v549q0 6 -9.5 9t-42.5 7l-31 4l-3 17h334l-3 -17l-39 -4q-43 -4 -43 -18v-549q0 -6 9.5 -9t41.5 -7l31 -4l3 -17h-333zM3 850h144l106 -184h-24z" />
    <glyph glyph-name="Iacute" unicode="&#xcd;" horiz-adv-x="385" 
d="M29 17l39 4q43 4 43 18v549q0 6 -9.5 9t-42.5 7l-31 4l-3 17h334l-3 -17l-39 -4q-43 -4 -43 -18v-549q0 -6 9.5 -9t41.5 -7l31 -4l3 -17h-333zM248 850h143l-225 -184h-24z" />
    <glyph glyph-name="Icircumflex" unicode="&#xce;" horiz-adv-x="385" 
d="M29 17l39 4q43 4 43 18v549q0 6 -9.5 9t-42.5 7l-31 4l-3 17h334l-3 -17l-39 -4q-43 -4 -43 -18v-549q0 -6 9.5 -9t41.5 -7l31 -4l3 -17h-333zM181 859h23l139 -200h-18l-131 88h-2l-132 -88h-18z" />
    <glyph glyph-name="Idieresis" unicode="&#xcf;" horiz-adv-x="385" 
d="M29 17l39 4q43 4 43 18v549q0 6 -9.5 9t-42.5 7l-31 4l-3 17h334l-3 -17l-39 -4q-43 -4 -43 -18v-549q0 -6 9.5 -9t41.5 -7l31 -4l3 -17h-333zM300 676q-31 0 -49 19.5t-18 47.5t18 48.5t49 20.5t49.5 -20.5t18.5 -48.5t-18 -47.5t-50 -19.5zM86 676q-31 0 -50 20t-19 47
q0 28 19 48.5t50 20.5t49.5 -20.5t18.5 -48.5t-18 -47.5t-50 -19.5z" />
    <glyph glyph-name="Eth" unicode="&#xd0;" horiz-adv-x="719" 
d="M367 326l3 -25h-108v-263l68 -15q85 0 134 78.5t49 196.5q0 303 -206 303h-45v-275h105zM20 301l3 25h75v258q0 7 -9 10.5t-37 7.5l-32 6l-3 17q62 1 165 1h157q170 0 261.5 -80.5t91.5 -228.5q0 -130 -103.5 -223.5t-253.5 -93.5h-319l3 17l40 7q39 5 39 19v258h-78z
" />
    <glyph glyph-name="Ntilde" unicode="&#xd1;" horiz-adv-x="720" 
d="M145 498h-3v-392q0 -49 16 -65t62 -20l31 -4l3 -17h-235l3 17l28 4q39 4 51.5 22.5t12.5 71.5l3 415q-40 61 -96 70l-19 8l-3 17h266l321 -392h4l-1 284q0 49 -16 67t-61 20l-30 4l-3 17h233l-3 -17l-28 -4q-38 -3 -51 -23.5t-13 -72.5l-3 -514h-49zM451 673
q-33 0 -101 32.5t-88 32.5q-15 0 -24.5 -11t-14.5 -45h-22q6 81 26.5 112t66.5 31q33 0 100 -32.5t87 -32.5q17 0 27 11t15 44h20q-6 -81 -26 -111.5t-66 -30.5z" />
    <glyph glyph-name="Ograve" unicode="&#xd2;" horiz-adv-x="756" 
d="M383 12q84 0 124 70t40 227q0 303 -171 303q-86 0 -127 -70.5t-41 -226.5q0 -303 175 -303zM373 -13q-153 0 -247.5 89t-94.5 235q0 137 105 232t248 95q154 0 248 -90t94 -236q0 -138 -104.5 -231.5t-248.5 -93.5zM182 850h144l106 -184h-24z" />
    <glyph glyph-name="Oacute" unicode="&#xd3;" horiz-adv-x="756" 
d="M383 12q84 0 124 70t40 227q0 303 -171 303q-86 0 -127 -70.5t-41 -226.5q0 -303 175 -303zM373 -13q-153 0 -247.5 89t-94.5 235q0 137 105 232t248 95q154 0 248 -90t94 -236q0 -138 -104.5 -231.5t-248.5 -93.5zM440 850h143l-225 -184h-24z" />
    <glyph glyph-name="Ocircumflex" unicode="&#xd4;" horiz-adv-x="756" 
d="M383 12q84 0 124 70t40 227q0 303 -171 303q-86 0 -127 -70.5t-41 -226.5q0 -303 175 -303zM373 -13q-153 0 -247.5 89t-94.5 235q0 137 105 232t248 95q154 0 248 -90t94 -236q0 -138 -104.5 -231.5t-248.5 -93.5zM366 859h23l139 -200h-18l-131 88h-2l-132 -88h-18z
" />
    <glyph glyph-name="Otilde" unicode="&#xd5;" horiz-adv-x="756" 
d="M383 12q84 0 124 70t40 227q0 303 -171 303q-86 0 -127 -70.5t-41 -226.5q0 -303 175 -303zM373 -13q-153 0 -247.5 89t-94.5 235q0 137 105 232t248 95q154 0 248 -90t94 -236q0 -138 -104.5 -231.5t-248.5 -93.5zM464 673q-33 0 -101 32.5t-88 32.5q-15 0 -24.5 -11
t-14.5 -45h-22q6 81 26.5 112t66.5 31q33 0 100 -32.5t87 -32.5q17 0 27 11t15 44h20q-6 -81 -26 -111.5t-66 -30.5z" />
    <glyph glyph-name="Odieresis" unicode="&#xd6;" horiz-adv-x="756" 
d="M383 12q84 0 124 70t40 227q0 303 -171 303q-86 0 -127 -70.5t-41 -226.5q0 -303 175 -303zM373 -13q-153 0 -247.5 89t-94.5 235q0 137 105 232t248 95q154 0 248 -90t94 -236q0 -138 -104.5 -231.5t-248.5 -93.5zM480 676q-31 0 -49 19.5t-18 47.5t18 48.5t49 20.5
t49.5 -20.5t18.5 -48.5t-18 -47.5t-50 -19.5zM266 676q-31 0 -50 20t-19 47q0 28 19 48.5t50 20.5t49.5 -20.5t18.5 -48.5t-18 -47.5t-50 -19.5z" />
    <glyph glyph-name="Oslash" unicode="&#xd8;" horiz-adv-x="756" 
d="M501 539q-43 73 -125 73q-86 0 -127 -70.5t-41 -226.5q0 -138 38 -216zM259 78q43 -66 124 -66q84 0 124 70t40 227q0 133 -34 208zM560 599q79 -42 122.5 -115.5t43.5 -171.5q0 -138 -104.5 -231.5t-248.5 -93.5q-85 0 -151 28l-51 -89h-25l56 97q-81 39 -126 113.5
t-45 174.5q0 137 105 232t248 95q83 0 157 -30l46 80h25z" />
    <glyph glyph-name="Ugrave" unicode="&#xd9;" horiz-adv-x="708" 
d="M364 -20q-270 0 -270 203v406q0 12 -50 15l-28 4l-3 17h326l-3 -17l-36 -4q-42 -4 -42 -17v-365q0 -86 40.5 -131t118.5 -45q88 0 128.5 46t40.5 148l-1 277q0 49 -16 67t-61 20l-31 4l-3 17h234l-3 -17l-27 -4q-38 -3 -51.5 -23t-13.5 -73l-1 -276q-2 -252 -248 -252z
M179 850h144l106 -184h-24z" />
    <glyph glyph-name="Uacute" unicode="&#xda;" horiz-adv-x="708" 
d="M364 -20q-270 0 -270 203v406q0 12 -50 15l-28 4l-3 17h326l-3 -17l-36 -4q-42 -4 -42 -17v-365q0 -86 40.5 -131t118.5 -45q88 0 128.5 46t40.5 148l-1 277q0 49 -16 67t-61 20l-31 4l-3 17h234l-3 -17l-27 -4q-38 -3 -51.5 -23t-13.5 -73l-1 -276q-2 -252 -248 -252z
M459 850h143l-225 -184h-24z" />
    <glyph glyph-name="Ucircumflex" unicode="&#xdb;" horiz-adv-x="708" 
d="M364 -20q-270 0 -270 203v406q0 12 -50 15l-28 4l-3 17h326l-3 -17l-36 -4q-42 -4 -42 -17v-365q0 -86 40.5 -131t118.5 -45q88 0 128.5 46t40.5 148l-1 277q0 49 -16 67t-61 20l-31 4l-3 17h234l-3 -17l-27 -4q-38 -3 -51.5 -23t-13.5 -73l-1 -276q-2 -252 -248 -252z
M383 859h23l139 -200h-18l-131 88h-2l-132 -88h-18z" />
    <glyph glyph-name="Udieresis" unicode="&#xdc;" horiz-adv-x="708" 
d="M364 -20q-270 0 -270 203v406q0 12 -50 15l-28 4l-3 17h326l-3 -17l-36 -4q-42 -4 -42 -17v-365q0 -86 40.5 -131t118.5 -45q88 0 128.5 46t40.5 148l-1 277q0 49 -16 67t-61 20l-31 4l-3 17h234l-3 -17l-27 -4q-38 -3 -51.5 -23t-13.5 -73l-1 -276q-2 -252 -248 -252z
M498 676q-31 0 -49 19.5t-18 47.5t18 48.5t49 20.5t49.5 -20.5t18.5 -48.5t-18 -47.5t-50 -19.5zM284 676q-31 0 -50 20t-19 47q0 28 19 48.5t50 20.5t49.5 -20.5t18.5 -48.5t-18 -47.5t-50 -19.5z" />
    <glyph glyph-name="Yacute" unicode="&#xdd;" horiz-adv-x="651" 
d="M161 17l40 4q42 4 42 18v239l-133 235q-31 52 -46 68t-43 22l-17 4l-3 18h331l-3 -18l-17 -3q-41 -5 -50 -19t9 -45l118 -216h5l64 118q39 71 48.5 101.5t-3.5 43t-58 16.5l-24 4l-3 18h240l-3 -18l-27 -5q-40 -6 -64.5 -34t-82.5 -136l-73 -131v-264q0 -6 9 -9t41 -7
l30 -4l3 -17h-333zM390 850h143l-225 -184h-24z" />
    <glyph glyph-name="Thorn" unicode="&#xde;" horiz-adv-x="635" 
d="M303 174q52 0 86.5 40.5t34.5 105.5q0 147 -128 152l-27 -2v-293l12 -1q12 -2 22 -2zM26 20l36 4q43 4 43 16v547q0 6 -9 8.5t-43 6.5l-26 3l-3 20h325l-3 -20l-35 -4q-42 -4 -42 -16v-93h44q287 0 287 -161q0 -85 -80 -132.5t-212 -47.5q-31 0 -39 2v-115q0 -11 51 -14
l36 -4l3 -20h-336z" />
    <glyph glyph-name="germandbls" unicode="&#xdf;" horiz-adv-x="608" 
d="M398 431q82 -37 133 -102.5t51 -138.5q0 -82 -57 -142.5t-133 -60.5q-62 0 -95.5 23.5t-33.5 64.5q0 28 19 47t47 19q32 0 48 -20t14 -46t-17 -47q7 -18 31 -18q26 0 43 22t17 62q0 80 -46.5 154.5t-145.5 127.5v41q65 21 90 46.5t25 82.5q0 47 -21 75t-57 28
q-46 0 -64 -28.5t-18 -102.5v-518h-206l3 20l19 1q13 1 18 2t11.5 2.5t8 4.5t1.5 7v334l-79 3l20 63l58 -2l4 67q4 74 70 122.5t155 48.5q102 0 157.5 -36t55.5 -100q0 -88 -126 -106z" />
    <glyph glyph-name="agrave" unicode="&#xe0;" 
d="M220 73q29 0 56 31l6 141q-66 -18 -93 -43.5t-27 -63.5q0 -30 15.5 -47.5t42.5 -17.5zM373 -13q-38 0 -62.5 24.5t-29.5 70.5l-3 1q-40 -48 -73 -71.5t-72 -23.5q-45 0 -77 29.5t-32 72.5q0 58 58.5 97.5t198.5 77.5l1 28q2 53 -24.5 87t-76.5 34q-53 0 -53 -20
q0 -1 16 -23t16 -39q0 -24 -19 -41.5t-48 -17.5q-28 0 -47 14.5t-19 39.5q0 52 78.5 89.5t160.5 37.5q87 0 125.5 -38.5t35.5 -124.5l-8 -176q-4 -54 35 -54q16 0 43 31l10 -11q-74 -94 -134 -94zM49 683h144l106 -184h-24z" />
    <glyph glyph-name="aacute" unicode="&#xe1;" 
d="M220 73q29 0 56 31l6 141q-66 -18 -93 -43.5t-27 -63.5q0 -30 15.5 -47.5t42.5 -17.5zM373 -13q-38 0 -62.5 24.5t-29.5 70.5l-3 1q-40 -48 -73 -71.5t-72 -23.5q-45 0 -77 29.5t-32 72.5q0 58 58.5 97.5t198.5 77.5l1 28q2 53 -24.5 87t-76.5 34q-53 0 -53 -20
q0 -1 16 -23t16 -39q0 -24 -19 -41.5t-48 -17.5q-28 0 -47 14.5t-19 39.5q0 52 78.5 89.5t160.5 37.5q87 0 125.5 -38.5t35.5 -124.5l-8 -176q-4 -54 35 -54q16 0 43 31l10 -11q-74 -94 -134 -94zM288 683h143l-225 -184h-24z" />
    <glyph glyph-name="acircumflex" unicode="&#xe2;" 
d="M220 73q29 0 56 31l6 141q-66 -18 -93 -43.5t-27 -63.5q0 -30 15.5 -47.5t42.5 -17.5zM373 -13q-38 0 -62.5 24.5t-29.5 70.5l-3 1q-40 -48 -73 -71.5t-72 -23.5q-45 0 -77 29.5t-32 72.5q0 58 58.5 97.5t198.5 77.5l1 28q2 53 -24.5 87t-76.5 34q-53 0 -53 -20
q0 -1 16 -23t16 -39q0 -24 -19 -41.5t-48 -17.5q-28 0 -47 14.5t-19 39.5q0 52 78.5 89.5t160.5 37.5q87 0 125.5 -38.5t35.5 -124.5l-8 -176q-4 -54 35 -54q16 0 43 31l10 -11q-74 -94 -134 -94zM227 692h23l139 -200h-18l-131 88h-2l-132 -88h-18z" />
    <glyph glyph-name="atilde" unicode="&#xe3;" 
d="M220 73q29 0 56 31l6 141q-66 -18 -93 -43.5t-27 -63.5q0 -30 15.5 -47.5t42.5 -17.5zM373 -13q-38 0 -62.5 24.5t-29.5 70.5l-3 1q-40 -48 -73 -71.5t-72 -23.5q-45 0 -77 29.5t-32 72.5q0 58 58.5 97.5t198.5 77.5l1 28q2 53 -24.5 87t-76.5 34q-53 0 -53 -20
q0 -1 16 -23t16 -39q0 -24 -19 -41.5t-48 -17.5q-28 0 -47 14.5t-19 39.5q0 52 78.5 89.5t160.5 37.5q87 0 125.5 -38.5t35.5 -124.5l-8 -176q-4 -54 35 -54q16 0 43 31l10 -11q-74 -94 -134 -94zM318 506q-33 0 -101 32.5t-88 32.5q-15 0 -24.5 -11t-14.5 -45h-22
q6 81 26.5 112t66.5 31q33 0 100 -32.5t87 -32.5q17 0 27 11t15 44h20q-6 -81 -26 -111.5t-66 -30.5z" />
    <glyph glyph-name="adieresis" unicode="&#xe4;" 
d="M220 73q29 0 56 31l6 141q-66 -18 -93 -43.5t-27 -63.5q0 -30 15.5 -47.5t42.5 -17.5zM373 -13q-38 0 -62.5 24.5t-29.5 70.5l-3 1q-40 -48 -73 -71.5t-72 -23.5q-45 0 -77 29.5t-32 72.5q0 58 58.5 97.5t198.5 77.5l1 28q2 53 -24.5 87t-76.5 34q-53 0 -53 -20
q0 -1 16 -23t16 -39q0 -24 -19 -41.5t-48 -17.5q-28 0 -47 14.5t-19 39.5q0 52 78.5 89.5t160.5 37.5q87 0 125.5 -38.5t35.5 -124.5l-8 -176q-4 -54 35 -54q16 0 43 31l10 -11q-74 -94 -134 -94zM346 509q-31 0 -49 19.5t-18 47.5t18 48.5t49 20.5t49.5 -20.5t18.5 -48.5
t-18 -47.5t-50 -19.5zM132 509q-31 0 -50 20t-19 47q0 28 19 48.5t50 20.5t49.5 -20.5t18.5 -48.5t-18 -47.5t-50 -19.5z" />
    <glyph glyph-name="aring" unicode="&#xe5;" 
d="M220 73q29 0 56 31l6 141q-66 -18 -93 -43.5t-27 -63.5q0 -30 15.5 -47.5t42.5 -17.5zM373 -13q-38 0 -62.5 24.5t-29.5 70.5l-3 1q-40 -48 -73 -71.5t-72 -23.5q-45 0 -77 29.5t-32 72.5q0 58 58.5 97.5t198.5 77.5l1 28q2 53 -24.5 87t-76.5 34q-53 0 -53 -20
q0 -1 16 -23t16 -39q0 -24 -19 -41.5t-48 -17.5q-28 0 -47 14.5t-19 39.5q0 52 78.5 89.5t160.5 37.5q87 0 125.5 -38.5t35.5 -124.5l-8 -176q-4 -54 35 -54q16 0 43 31l10 -11q-74 -94 -134 -94zM225 519q34 0 55 22.5t21 55.5t-21 56t-55 23q-35 0 -55.5 -22.5
t-20.5 -56.5q0 -33 20.5 -55.5t55.5 -22.5zM225 502q-44 0 -69.5 27.5t-25.5 67.5q0 41 25.5 68.5t69.5 27.5q43 0 68.5 -27.5t25.5 -68.5q0 -40 -25.5 -67.5t-68.5 -27.5z" />
    <glyph glyph-name="ae" unicode="&#xe6;" horiz-adv-x="728" 
d="M567 300q0 131 -60 131q-30 0 -52 -34.5t-27 -97.5zM215 73q41 0 78 42q-13 32 -13 116q0 10 1 13q-64 -17 -91.5 -43.5t-27.5 -64.5q0 -28 16 -45.5t37 -17.5zM132 -12q-44 0 -76 30t-32 72q0 58 58.5 98t198.5 78l1 27q2 53 -24.5 87t-76.5 34q-53 0 -53 -20
q0 -1 16 -23t16 -39q0 -24 -19 -41.5t-48 -17.5q-28 0 -47 14.5t-19 39.5q0 52 76.5 89.5t159.5 37.5q78 0 112 -44q62 46 146 46q85 0 133 -44.5t48 -105.5q0 -18 -4 -30q-21 0 -61 0.5t-59 1.5q-37 0 -91.5 1.5t-59.5 1.5v-34q1 -79 39 -126.5t104 -47.5q84 0 124 76
l11 -6q-26 -75 -82.5 -115t-134.5 -40q-67 0 -115.5 29.5t-71.5 83.5q-35 -53 -80.5 -83t-88.5 -30z" />
    <glyph glyph-name="ccedilla" unicode="&#xe7;" horiz-adv-x="465" 
d="M237 -16q-93 2 -153 63.5t-60 157.5q0 108 71 178.5t181 70.5q74 0 121 -29.5t47 -75.5q0 -32 -19.5 -51t-49.5 -19q-33 0 -53 24.5t-17 57.5q0 12 10.5 28.5t10.5 17.5q-1 9 -14 15.5t-30 6.5q-46 0 -73.5 -45.5t-27.5 -129.5q0 -88 35.5 -136.5t101.5 -48.5
q80 0 122 77l11 -6q-51 -144 -190 -155l-45 -47q68 8 115 -16.5t47 -68.5q0 -106 -233 -130l-5 12q80 12 118.5 32t38.5 54q0 26 -24.5 39.5t-61.5 13.5q-43 0 -79 -12v12z" />
    <glyph glyph-name="egrave" unicode="&#xe8;" horiz-adv-x="478" 
d="M317 300q0 131 -59 131q-31 0 -53 -34.5t-27 -97.5zM240 -16q-93 0 -154.5 63.5t-61.5 161.5q0 105 71.5 176t176.5 71q83 0 131 -44.5t48 -105.5q0 -16 -3 -30q-21 0 -61 0.5t-59 1.5q-37 0 -90.5 1.5t-59.5 1.5q-1 -9 -1 -34q0 -80 39 -129t104 -49q81 0 123 77l12 -6
q-55 -156 -215 -156zM64 683h144l106 -184h-24z" />
    <glyph glyph-name="eacute" unicode="&#xe9;" horiz-adv-x="478" 
d="M317 300q0 131 -59 131q-31 0 -53 -34.5t-27 -97.5zM240 -16q-93 0 -154.5 63.5t-61.5 161.5q0 105 71.5 176t176.5 71q83 0 131 -44.5t48 -105.5q0 -16 -3 -30q-21 0 -61 0.5t-59 1.5q-37 0 -90.5 1.5t-59.5 1.5q-1 -9 -1 -34q0 -80 39 -129t104 -49q81 0 123 77l12 -6
q-55 -156 -215 -156zM303 683h143l-225 -184h-24z" />
    <glyph glyph-name="ecircumflex" unicode="&#xea;" horiz-adv-x="478" 
d="M317 300q0 131 -59 131q-31 0 -53 -34.5t-27 -97.5zM240 -16q-93 0 -154.5 63.5t-61.5 161.5q0 105 71.5 176t176.5 71q83 0 131 -44.5t48 -105.5q0 -16 -3 -30q-21 0 -61 0.5t-59 1.5q-37 0 -90.5 1.5t-59.5 1.5q-1 -9 -1 -34q0 -80 39 -129t104 -49q81 0 123 77l12 -6
q-55 -156 -215 -156zM241 692h23l139 -200h-18l-131 88h-2l-132 -88h-18z" />
    <glyph glyph-name="edieresis" unicode="&#xeb;" horiz-adv-x="478" 
d="M317 300q0 131 -59 131q-31 0 -53 -34.5t-27 -97.5zM240 -16q-93 0 -154.5 63.5t-61.5 161.5q0 105 71.5 176t176.5 71q83 0 131 -44.5t48 -105.5q0 -16 -3 -30q-21 0 -61 0.5t-59 1.5q-37 0 -90.5 1.5t-59.5 1.5q-1 -9 -1 -34q0 -80 39 -129t104 -49q81 0 123 77l12 -6
q-55 -156 -215 -156zM360 509q-31 0 -49 19.5t-18 47.5t18 48.5t49 20.5t49.5 -20.5t18.5 -48.5t-18 -47.5t-50 -19.5zM146 509q-31 0 -50 20t-19 47q0 28 19 48.5t50 20.5t49.5 -20.5t18.5 -48.5t-18 -47.5t-50 -19.5z" />
    <glyph glyph-name="igrave" unicode="&#xec;" horiz-adv-x="302" 
d="M25 17l14 1q24 2 32 5.5t8 11.5v262q0 45 -7.5 58.5t-34.5 21.5l-20 5l1 13l206 58v-419q0 -7 8 -9.5t40 -6.5l9 -1l3 -17h-262zM-23 683h144l106 -184h-24z" />
    <glyph glyph-name="iacute" unicode="&#xed;" horiz-adv-x="302" 
d="M25 17l14 1q24 2 32 5.5t8 11.5v262q0 45 -7.5 58.5t-34.5 21.5l-20 5l1 13l206 58v-419q0 -7 8 -9.5t40 -6.5l9 -1l3 -17h-262zM184 683h143l-225 -184h-24z" />
    <glyph glyph-name="icircumflex" unicode="&#xee;" horiz-adv-x="302" 
d="M139 692h22l140 -200h-19l-131 87h-2l-131 -87h-18zM25 17l14 1q24 2 32 5.5t8 11.5v262q0 45 -7.5 58.5t-34.5 21.5l-20 5l1 13l206 58v-419q0 -7 8 -9.5t40 -6.5l9 -1l3 -17h-262z" />
    <glyph glyph-name="idieresis" unicode="&#xef;" horiz-adv-x="302" 
d="M25 17l14 1q24 2 32 5.5t8 11.5v262q0 45 -7.5 58.5t-34.5 21.5l-20 5l1 13l206 58v-419q0 -7 8 -9.5t40 -6.5l9 -1l3 -17h-262zM259 509q-31 0 -49 19.5t-18 47.5t18 48.5t49 20.5t49.5 -20.5t18.5 -48.5t-18 -47.5t-50 -19.5zM45 509q-31 0 -50 20t-19 47q0 28 19 48.5
t50 20.5t49.5 -20.5t18.5 -48.5t-18 -47.5t-50 -19.5z" />
    <glyph glyph-name="eth" unicode="&#xf0;" horiz-adv-x="543" 
d="M273 10q91 0 91 204q0 103 -26 163t-72 60q-42 0 -64.5 -56.5t-22.5 -147.5q0 -119 21.5 -171t72.5 -52zM234 550l-8 -3q-9 -3 -25.5 -8t-30.5 -10q-32 -12 -65 -21l2 25l104 34q-54 35 -124 50l7 17q103 -11 182 -45l113 37l2 -25q-5 -2 -20 -6.5t-22 -6.5
q-6 -2 -12.5 -4t-11 -4t-9 -3.5t-6.5 -2.5h-3q101 -53 155 -136.5t54 -182.5q0 -121 -69.5 -194t-177.5 -73q-113 0 -179 67t-66 166q0 100 67 168.5t171 68.5q28 0 53 -6q-35 61 -81 98z" />
    <glyph glyph-name="ntilde" unicode="&#xf1;" horiz-adv-x="579" 
d="M23 17l14 1q24 2 32 5.5t8 11.5v262q0 45 -7.5 58.5t-34.5 21.5l-20 5l1 13l208 58l-2 -86h2q103 87 174 87q46 0 82 -36q34 -34 34 -119v-264q0 -6 8.5 -9t40.5 -8l11 -1l3 -17h-260l3 17l16 1q16 1 24 4t9 5.5t1 7.5v233q0 54 -20 74.5t-59 20.5q-40 0 -69 -20v-162
v-147q0 -7 7 -10.5t32 -5.5l16 -1l2 -17h-259zM368 506q-33 0 -101 32.5t-88 32.5q-15 0 -24.5 -11t-14.5 -45h-22q6 81 26.5 112t66.5 31q33 0 100 -32.5t87 -32.5q17 0 27 11t15 44h20q-6 -81 -26 -111.5t-66 -30.5z" />
    <glyph glyph-name="ograve" unicode="&#xf2;" horiz-adv-x="548" 
d="M272 7q45 0 69.5 56t24.5 148q0 157 -46 203q-17 17 -45 17q-46 0 -70.5 -53t-24.5 -148q0 -156 45 -206q17 -17 47 -17zM268 -14q-112 0 -178 67t-66 166t72 167t184 68t178 -66.5t66 -164.5q0 -101 -71.5 -169t-184.5 -68zM73 683h144l106 -184h-24z" />
    <glyph glyph-name="oacute" unicode="&#xf3;" horiz-adv-x="548" 
d="M272 7q45 0 69.5 56t24.5 148q0 157 -46 203q-17 17 -45 17q-46 0 -70.5 -53t-24.5 -148q0 -156 45 -206q17 -17 47 -17zM268 -14q-112 0 -178 67t-66 166t72 167t184 68t178 -66.5t66 -164.5q0 -101 -71.5 -169t-184.5 -68zM325 683h143l-225 -184h-24z" />
    <glyph glyph-name="ocircumflex" unicode="&#xf4;" horiz-adv-x="548" 
d="M272 7q45 0 69.5 56t24.5 148q0 157 -46 203q-17 17 -45 17q-46 0 -70.5 -53t-24.5 -148q0 -156 45 -206q17 -17 47 -17zM268 -14q-112 0 -178 67t-66 166t72 167t184 68t178 -66.5t66 -164.5q0 -101 -71.5 -169t-184.5 -68zM261 692h23l139 -200h-18l-131 88h-2
l-132 -88h-18z" />
    <glyph glyph-name="otilde" unicode="&#xf5;" horiz-adv-x="548" 
d="M272 7q45 0 69.5 56t24.5 148q0 157 -46 203q-17 17 -45 17q-46 0 -70.5 -53t-24.5 -148q0 -156 45 -206q17 -17 47 -17zM268 -14q-112 0 -178 67t-66 166t72 167t184 68t178 -66.5t66 -164.5q0 -101 -71.5 -169t-184.5 -68zM352 506q-33 0 -101 32.5t-88 32.5
q-15 0 -24.5 -11t-14.5 -45h-22q6 81 26.5 112t66.5 31q33 0 100 -32.5t87 -32.5q17 0 27 11t15 44h20q-6 -81 -26 -111.5t-66 -30.5z" />
    <glyph glyph-name="odieresis" unicode="&#xf6;" horiz-adv-x="548" 
d="M272 7q45 0 69.5 56t24.5 148q0 157 -46 203q-17 17 -45 17q-46 0 -70.5 -53t-24.5 -148q0 -156 45 -206q17 -17 47 -17zM268 -14q-112 0 -178 67t-66 166t72 167t184 68t178 -66.5t66 -164.5q0 -101 -71.5 -169t-184.5 -68zM379 509q-31 0 -49 19.5t-18 47.5t18 48.5
t49 20.5t49.5 -20.5t18.5 -48.5t-18 -47.5t-50 -19.5zM165 509q-31 0 -50 20t-19 47q0 28 19 48.5t50 20.5t49.5 -20.5t18.5 -48.5t-18 -47.5t-50 -19.5z" />
    <glyph glyph-name="divide" unicode="&#xf7;" horiz-adv-x="574" 
d="M287 24q94 0 155 61.5t61 159.5t-60.5 158t-155.5 60q-94 0 -154 -61.5t-60 -159.5t59.5 -158t154.5 -60zM286 -13q-111 0 -181 70t-70 185q0 114 71 186t182 72q112 0 182.5 -70t70.5 -185t-71.5 -186.5t-183.5 -71.5z" />
    <glyph glyph-name="oslash" unicode="&#xf8;" horiz-adv-x="548" 
d="M196 78q11 -34 29 -54q16 -16 47 -16q45 0 69.5 55t24.5 148q0 86 -14 137zM344 375q-10 25 -24 39q-19 19 -45 19q-46 0 -70.5 -54t-24.5 -149q0 -82 9 -123zM137 17q-54 30 -83.5 83.5t-29.5 118.5q0 99 72 167t184 68q53 0 99 -17q2 0 41 71q6 11 20 34t21 36h24
q-9 -14 -23 -39t-20 -35q-10 -16 -21 -35t-17 -29l-6 -11q60 -29 93 -84.5t33 -121.5q0 -101 -71.5 -169t-184.5 -68q-64 0 -112 22l-79 -137h-24z" />
    <glyph glyph-name="ugrave" unicode="&#xf9;" horiz-adv-x="561" 
d="M355 74h-3q-99 -88 -174 -88q-40 0 -79 37q-38 39 -33 120l2 264q0 8 -50 14l-15 1l-3 17h214l-3 -268q-1 -52 19.5 -73t59.5 -21q28 0 64 20v162v146q0 8 -8.5 11t-39.5 5l-15 1l-4 17h211v-318q0 -36 6.5 -49t28.5 -19l28 -7l-2 -12l-206 -50zM75 683h144l106 -184h-24
z" />
    <glyph glyph-name="uacute" unicode="&#xfa;" horiz-adv-x="561" 
d="M355 74h-3q-99 -88 -174 -88q-40 0 -79 37q-38 39 -33 120l2 264q0 8 -50 14l-15 1l-3 17h214l-3 -268q-1 -52 19.5 -73t59.5 -21q28 0 64 20v162v146q0 8 -8.5 11t-39.5 5l-15 1l-4 17h211v-318q0 -36 6.5 -49t28.5 -19l28 -7l-2 -12l-206 -50zM333 683h143l-225 -184
h-24z" />
    <glyph glyph-name="ucircumflex" unicode="&#xfb;" horiz-adv-x="561" 
d="M355 74h-3q-99 -88 -174 -88q-40 0 -79 37q-38 39 -33 120l2 264q0 8 -50 14l-15 1l-3 17h214l-3 -268q-1 -52 19.5 -73t59.5 -21q28 0 64 20v162v146q0 8 -8.5 11t-39.5 5l-15 1l-4 17h211v-318q0 -36 6.5 -49t28.5 -19l28 -7l-2 -12l-206 -50zM264 692h23l139 -200h-18
l-131 88h-2l-132 -88h-18z" />
    <glyph glyph-name="udieresis" unicode="&#xfc;" horiz-adv-x="561" 
d="M355 74h-3q-99 -88 -174 -88q-40 0 -79 37q-38 39 -33 120l2 264q0 8 -50 14l-15 1l-3 17h214l-3 -268q-1 -52 19.5 -73t59.5 -21q28 0 64 20v162v146q0 8 -8.5 11t-39.5 5l-15 1l-4 17h211v-318q0 -36 6.5 -49t28.5 -19l28 -7l-2 -12l-206 -50zM395 509q-31 0 -49 19.5
t-18 47.5t18 48.5t49 20.5t49.5 -20.5t18.5 -48.5t-18 -47.5t-50 -19.5zM181 509q-31 0 -50 20t-19 47q0 28 19 48.5t50 20.5t49.5 -20.5t18.5 -48.5t-18 -47.5t-50 -19.5z" />
    <glyph glyph-name="yacute" unicode="&#xfd;" 
d="M107 -258q-31 0 -54.5 18.5t-23.5 51.5q0 26 18 45.5t47 19.5q30 0 49 -18.5t22 -43.5q18 5 29 21t26 55l32 87h-17l-175 393q-12 26 -22 34.5t-32 12.5l-17 4l-3 17h281l-3 -17l-22 -4q-26 -4 -32 -13t4 -29l98 -236l61 169q21 62 15 81.5t-46 25.5l-21 6l-3 17h185
l-3 -17l-22 -4q-27 -2 -40.5 -21t-39.5 -90l-110 -293l-49 -141q-23 -69 -55 -100t-77 -31zM314 683h143l-225 -184h-24z" />
    <glyph glyph-name="thorn" unicode="&#xfe;" horiz-adv-x="559" 
d="M296 7q38 0 60.5 52.5t22.5 134.5q0 79 -29.5 126.5t-80.5 47.5q-38 0 -72 -27v-253q51 -81 99 -81zM-8 -231l21 1q14 1 19 2t11.5 3t8 4.5t1.5 7.5v747q0 36 -7 48.5t-29 18.5l-26 10l1 12l205 56v-315l5 -2q28 38 68 63.5t84 25.5q76 0 129 -63t53 -155
q0 -112 -76 -179.5t-175 -67.5q-51 0 -84 14h-4v-217q0 -12 47 -13l34 -1l3 -20h-292z" />
    <glyph glyph-name="ydieresis" unicode="&#xff;" 
d="M107 -258q-31 0 -54.5 18.5t-23.5 51.5q0 26 18 45.5t47 19.5q30 0 49 -18.5t22 -43.5q18 5 29 21t26 55l32 87h-17l-175 393q-12 26 -22 34.5t-32 12.5l-17 4l-3 17h281l-3 -17l-22 -4q-26 -4 -32 -13t4 -29l98 -236l61 169q21 62 15 81.5t-46 25.5l-21 6l-3 17h185
l-3 -17l-22 -4q-27 -2 -40.5 -21t-39.5 -90l-110 -293l-49 -141q-23 -69 -55 -100t-77 -31zM359 509q-31 0 -49 19.5t-18 47.5t18 48.5t49 20.5t49.5 -20.5t18.5 -48.5t-18 -47.5t-50 -19.5zM145 509q-31 0 -50 20t-19 47q0 28 19 48.5t50 20.5t49.5 -20.5t18.5 -48.5
t-18 -47.5t-50 -19.5z" />
    <glyph glyph-name="dotlessi" unicode="&#x131;" horiz-adv-x="302" 
d="M25 17l14 1q24 2 32 5.5t8 11.5v262q0 45 -7.5 58.5t-34.5 21.5l-20 5l1 13l206 58v-419q0 -7 8 -9.5t40 -6.5l9 -1l3 -17h-262z" />
    <glyph glyph-name="Lslash" unicode="&#x141;" horiz-adv-x="596" 
d="M11 223l1 25l89 28v307q0 6 -7.5 9t-37.5 8h-1l-30 5l-3 20h330l-3 -20l-47 -6q-39 -6 -39 -18v-255l99 31l1 -25l-100 -31v-276l37 -4q77 0 127 39.5t102 146.5l10 26h31l-28 -233h-521l3 20l38 6q39 4 39 18v207z" />
    <glyph glyph-name="lslash" unicode="&#x142;" horiz-adv-x="293" 
d="M1 213l1 25l71 22v272q0 37 -7 50t-28 19l-26 10l2 12l206 57v-374l72 22l1 -24l-73 -23v-240q0 -6 6.5 -9t35.5 -9l11 -4l3 -19h-256l4 19l13 4q22 4 29 7.5t7 11.5v193z" />
    <glyph glyph-name="OE" unicode="&#x152;" horiz-adv-x="996" 
d="M460 23v567l-68 13q-86 0 -136 -79t-50 -198q0 -303 210 -303h44zM375 0q-165 1 -254.5 80.5t-89.5 226.5q0 131 103 224.5t254 93.5h536l4 -215h-29l-9 29q-24 97 -80 131t-149 32l-39 -2v-271h28q96 6 119 82l12 35h24l-29 -263h-23l-4 34q-4 46 -26.5 66.5t-81.5 22.5
l-19 1v-282l63 -3q93 1 149.5 40t85.5 125l9 25h30l-20 -212h-564z" />
    <glyph glyph-name="oe" unicode="&#x153;" horiz-adv-x="818" 
d="M658 300q0 131 -59 131q-31 0 -54.5 -34.5t-28.5 -97.5zM271 4q45 0 69 56t24 151q0 160 -45 205q-17 17 -45 17q-45 0 -69 -55.5t-24 -150.5q0 -162 43 -205q18 -18 47 -18zM268 -17q-113 0 -178.5 67t-65.5 166q0 100 72 170t185 70q99 0 167 -61q71 61 165 61
q84 0 132 -44.5t48 -105.5q0 -18 -4 -30q-21 0 -62 0.5t-60 1.5q-37 0 -91.5 1.5t-59.5 1.5q-1 -9 -1 -34q0 -79 40 -128.5t106 -49.5q80 0 124 77l11 -6q-55 -156 -215 -156q-84 0 -146 56q-70 -57 -167 -57z" />
    <glyph glyph-name="Scaron" unicode="&#x160;" horiz-adv-x="548" 
d="M261 -13q-119 0 -206 33l-15 183h31l51 -116q31 -38 64 -56t81 -18q61 0 92.5 28.5t31.5 78.5q0 30 -11.5 52t-38 38.5t-48 25.5t-62.5 23q-43 15 -70.5 28t-55 34t-41 50t-13.5 68q0 87 64.5 143t163.5 56q66 0 145 -24l47 15l3 -195h-28l-88 162q-36 17 -83 17
q-50 0 -80 -25t-30 -64q0 -23 9.5 -40.5t29 -30t40 -21.5t51.5 -20q11 -4 17 -6q45 -15 76 -29.5t59.5 -38t42.5 -57t14 -77.5q0 -92 -68.5 -154.5t-174.5 -62.5zM126 866h18l132 -88h2l131 88h18l-139 -200h-23z" />
    <glyph glyph-name="scaron" unicode="&#x161;" horiz-adv-x="414" 
d="M192 -14q-96 0 -162 27l-3 128l28 -2l27 -56q28 -41 52 -58.5t61 -17.5q38 0 58.5 19t20.5 52q0 14 -6.5 25.5t-14.5 19t-25 16.5t-28 13.5t-33 12.5q-34 14 -54.5 24t-42 26.5t-31.5 39t-10 52.5q0 67 49.5 106.5t130.5 39.5q56 0 104 -16l49 9l5 -142l-26 -1l-76 112
q-28 16 -57 16q-32 0 -51 -17.5t-19 -48.5q0 -16 5.5 -27t23 -22t26.5 -15t39 -16q4 -2 6.5 -3t5.5 -2q33 -13 52.5 -22.5t43.5 -26.5t35.5 -41t11.5 -55q0 -63 -50 -106t-145 -43zM52 686h18l132 -88h2l131 88h18l-139 -200h-23z" />
    <glyph glyph-name="Ydieresis" unicode="&#x178;" horiz-adv-x="651" 
d="M161 17l40 4q42 4 42 18v239l-133 235q-31 52 -46 68t-43 22l-17 4l-3 18h331l-3 -18l-17 -3q-41 -5 -50 -19t9 -45l118 -216h5l64 118q39 71 48.5 101.5t-3.5 43t-58 16.5l-24 4l-3 18h240l-3 -18l-27 -5q-40 -6 -64.5 -34t-82.5 -136l-73 -131v-264q0 -6 9 -9t41 -7
l30 -4l3 -17h-333zM449 676q-31 0 -49 19.5t-18 47.5t18 48.5t49 20.5t49.5 -20.5t18.5 -48.5t-18 -47.5t-50 -19.5zM235 676q-31 0 -50 20t-19 47q0 28 19 48.5t50 20.5t49.5 -20.5t18.5 -48.5t-18 -47.5t-50 -19.5z" />
    <glyph glyph-name="Zcaron" unicode="&#x17d;" horiz-adv-x="628" 
d="M31 20l363 577v3l-84 1q-156 0 -209 -163l-9 -29h-32l6 216h519v-20l-376 -576v-3l88 -3q99 -6 155.5 38.5t105.5 161.5l11 26h32l-30 -249h-540v20zM164 859h18l132 -88h2l131 88h18l-139 -200h-23z" />
    <glyph glyph-name="zcaron" unicode="&#x17e;" horiz-adv-x="475" 
d="M21 15l251 402l-42 -2q-60 -3 -92 -24.5t-51 -66.5l-28 -63h-23v178h405v-15l-260 -401l48 1q131 7 181 115l22 43h23l-33 -182h-401v15zM92 679h18l132 -88h2l131 88h18l-139 -200h-23z" />
    <glyph glyph-name="florin" unicode="&#x192;" horiz-adv-x="604" 
d="M124 -55q-60 0 -95.5 24.5t-35.5 64.5q0 29 19 49t53 20q43 0 62.5 -36.5t-12.5 -79.5q16 -5 18 -5q12 -4 24 -4q23 6 39.5 59t42.5 197l17 102l-103 5l20 52l97 12q40 137 78 175q58 58 167 58q54 0 88.5 -26.5t34.5 -66.5q0 -32 -20 -52t-50 -20q-54 0 -66.5 44.5
t30.5 76.5q-2 1 -7 3t-7 3q-16 6 -23 6q-34 -8 -73 -191q-2 -9 -3 -13h124l-10 -60h-126l-25 -104q-37 -158 -116 -234q-59 -59 -142 -59z" />
    <glyph glyph-name="circumflex" unicode="&#x2c6;" horiz-adv-x="379" 
d="M178 692h23l139 -200h-18l-131 88h-2l-132 -88h-18z" />
    <glyph glyph-name="caron" unicode="&#x2c7;" horiz-adv-x="379" 
d="M39 692h18l132 -88h2l131 88h18l-139 -200h-23z" />
    <glyph glyph-name="breve" unicode="&#x2d8;" horiz-adv-x="407" 
d="M203 494q-116 0 -152 182h24q32 -93 130 -93q44 0 79 23t52 70h22q-31 -182 -155 -182z" />
    <glyph glyph-name="dotaccent" unicode="&#x2d9;" horiz-adv-x="418" 
d="M209 517q-35 0 -57 24t-22 56t22 56t57 24q36 0 57.5 -23.5t21.5 -56.5t-21.5 -56.5t-57.5 -23.5z" />
    <glyph glyph-name="ring" unicode="&#x2da;" horiz-adv-x="379" 
d="M190 519q34 0 55 22.5t21 55.5t-21 56t-55 23q-35 0 -55.5 -22.5t-20.5 -56.5q0 -33 20.5 -55.5t55.5 -22.5zM190 502q-44 0 -69.5 27.5t-25.5 67.5q0 41 25.5 68.5t69.5 27.5q43 0 68.5 -27.5t25.5 -68.5q0 -40 -25.5 -67.5t-68.5 -27.5z" />
    <glyph glyph-name="ogonek" unicode="&#x2db;" horiz-adv-x="415" 
d="M197 -245q-48 0 -81 29t-33 74q0 98 173 165h33q-62 -25 -94.5 -63t-32.5 -71q0 -35 22.5 -54t59.5 -19q43 0 89 34l6 -11q-24 -32 -61.5 -58t-80.5 -26z" />
    <glyph glyph-name="tilde" unicode="&#x2dc;" horiz-adv-x="407" 
d="M282 506q-33 0 -101 32.5t-88 32.5q-15 0 -24.5 -11t-14.5 -45h-22q6 81 26.5 112t66.5 31q33 0 100 -32.5t87 -32.5q17 0 27 11t15 44h20q-6 -81 -26 -111.5t-66 -30.5z" />
    <glyph glyph-name="hungarumlaut" unicode="&#x2dd;" horiz-adv-x="460" 
d="M370 683h139l-226 -184h-21zM171 683h138l-225 -184h-21z" />
    <glyph glyph-name="pi" unicode="&#x3c0;" horiz-adv-x="733" 
d="M379 295q34 0 55 26t21 68q0 43 -21 68t-57 26l-23 -1v-184q21 -3 25 -3zM209 134l25 3q23 4 23 12v320q0 6 -27 10l-21 3l-2 15h176q174 0 174 -103q0 -52 -46.5 -83t-126.5 -31q-14 0 -30 2v-135q0 -6 29 -9l25 -4l2 -15h-203zM367 -9q132 0 225.5 94.5t93.5 226.5
q0 133 -93.5 228t-225.5 95t-226 -95t-94 -228q0 -132 94 -226.5t226 -94.5zM367 -28q-142 0 -241 99.5t-99 240.5t99.5 241.5t240.5 100.5t240.5 -100.5t99.5 -241.5t-99.5 -240.5t-240.5 -99.5z" />
    <glyph glyph-name="endash" unicode="&#x2013;" horiz-adv-x="440" 
d="M16 260h408l3 -40h-414z" />
    <glyph glyph-name="emdash" unicode="&#x2014;" horiz-adv-x="909" 
d="M16 260h877l5 -40h-885z" />
    <glyph glyph-name="quoteleft" unicode="&#x2018;" horiz-adv-x="222" 
d="M121 349q-51 0 -78.5 32.5t-27.5 75.5q0 55 45.5 108.5t124.5 89.5l13 -14q-93 -53 -93 -124q0 -35 23.5 -55t47.5 -26l24 -7q0 -28 -21.5 -54t-57.5 -26z" />
    <glyph glyph-name="quoteright" unicode="&#x2019;" horiz-adv-x="222" 
d="M24 360q93 53 93 124q0 34 -23.5 54.5t-47.5 27.5l-24 6q0 28 21.5 54t57.5 26q50 0 78 -32.5t28 -75.5q0 -57 -45 -110t-125 -88z" />
    <glyph glyph-name="quotesinglbase" unicode="&#x201a;" horiz-adv-x="222" 
d="M24 -139q93 53 93 124q0 34 -23.5 54.5t-47.5 26.5l-24 7q0 28 21.5 54t57.5 26q50 0 78 -32.5t28 -75.5q0 -57 -45 -110t-125 -88z" />
    <glyph glyph-name="quotedblleft" unicode="&#x201c;" horiz-adv-x="430" 
d="M121 349q-51 0 -78.5 32.5t-27.5 75.5q0 55 45.5 108.5t124.5 89.5l13 -14q-93 -53 -93 -124q0 -35 23.5 -55t47.5 -26l24 -7q0 -28 -21.5 -54t-57.5 -26zM329 349q-49 0 -77 32.5t-28 75.5q0 56 45 109.5t125 88.5l12 -14q-93 -53 -93 -124q0 -35 24 -55t48 -26l24 -7
q0 -28 -22 -54t-58 -26z" />
    <glyph glyph-name="quotedblright" unicode="&#x201d;" horiz-adv-x="430" 
d="M232 360q93 53 93 124q0 34 -23.5 54.5t-47.5 27.5l-24 6q0 28 21.5 54t57.5 26q51 0 78.5 -32.5t27.5 -75.5q0 -57 -45 -110t-125 -88zM24 360q93 53 93 124q0 34 -23.5 54.5t-47.5 27.5l-24 6q0 28 21.5 54t57.5 26q50 0 78 -32.5t28 -75.5q0 -57 -45 -110t-125 -88z
" />
    <glyph glyph-name="quotedblbase" unicode="&#x201e;" horiz-adv-x="427" 
d="M232 -139q93 53 93 124q0 34 -23.5 54.5t-47.5 26.5l-24 7q0 28 21.5 54t57.5 26q51 0 78.5 -32.5t27.5 -75.5q0 -57 -45 -110t-125 -88zM24 -139q93 53 93 124q0 34 -23.5 54.5t-47.5 26.5l-24 7q0 28 21.5 54t57.5 26q50 0 78 -32.5t28 -75.5q0 -57 -45 -110t-125 -88z
" />
    <glyph glyph-name="dagger" unicode="&#x2020;" horiz-adv-x="444" 
d="M211 406h-195l-2 21h197v198h22v-198h198l-2 -21h-196v-562h-22v562z" />
    <glyph glyph-name="daggerdbl" unicode="&#x2021;" horiz-adv-x="444" 
d="M211 31h-197l2 22h195v363h-195l-2 21h197v188h22v-188h198l-2 -21h-196v-363h196l2 -22h-198v-187h-22v187z" />
    <glyph glyph-name="bullet" unicode="&#x2022;" horiz-adv-x="434" 
d="M217 39q-21 0 -71 21t-64 35q-15 17 -36 66.5t-21 70.5t21 71t36 65t65 35.5t71 20.5t72 -20.5t64 -35.5q15 -13 35.5 -64t20.5 -72t-20 -71t-36 -66q-15 -15 -65 -35.5t-72 -20.5z" />
    <glyph glyph-name="ellipsis" unicode="&#x2026;" horiz-adv-x="684" 
d="M343 -13q-32 0 -55.5 23.5t-23.5 56.5q0 32 23.5 54.5t55.5 22.5q31 0 54.5 -23.5t23.5 -53.5q0 -33 -23 -56.5t-55 -23.5zM116 -13q-33 0 -56 23.5t-23 56.5q0 32 22.5 54.5t55.5 22.5q32 0 55 -23t23 -54q0 -33 -22.5 -56.5t-54.5 -23.5zM570 -13q-32 0 -54.5 23.5
t-22.5 56.5q0 32 22.5 54.5t54.5 22.5t55 -23t23 -54q0 -33 -22.5 -56.5t-55.5 -23.5z" />
    <glyph glyph-name="perthousand" unicode="&#x2030;" horiz-adv-x="910" 
d="M147 365q-61 0 -98.5 40t-37.5 98t37.5 99t98.5 41q62 0 100 -41t38 -99t-38 -98t-100 -40zM510 640h24l-451 -654h-25zM762 -17q-62 0 -99.5 40t-37.5 98t37.5 99t99.5 41t99.5 -41t37.5 -99t-37.5 -98t-99.5 -40zM446 -17q-61 0 -98.5 40t-37.5 98t37.5 99t98.5 41
q62 0 99.5 -41t37.5 -99t-37.5 -98t-99.5 -40zM147 385q52 0 83.5 34t31.5 84t-31.5 85t-83.5 35q-50 0 -81.5 -35t-31.5 -85q0 -49 31.5 -83.5t81.5 -34.5zM762 3q52 0 83 33.5t31 84.5q0 50 -31.5 85t-82.5 35t-82.5 -35t-31.5 -85q0 -51 31 -84.5t83 -33.5zM446 3
q52 0 83 33.5t31 84.5q0 50 -31.5 85t-82.5 35q-50 0 -81.5 -35t-31.5 -85q0 -52 30.5 -85t82.5 -33z" />
    <glyph glyph-name="guilsinglleft" unicode="&#x2039;" horiz-adv-x="293" 
d="M17 205v35l252 173l5 -8l-122 -184l123 -183l-6 -7z" />
    <glyph glyph-name="guilsinglright" unicode="&#x203a;" horiz-adv-x="294" 
d="M21 39l124 182l-124 184l6 8l252 -173v-35l-252 -174z" />
    <glyph glyph-name="fraction" unicode="&#x2044;" horiz-adv-x="479" 
d="M459 640h30l-469 -654h-30z" />
    <glyph glyph-name="Euro" unicode="&#x20ac;" horiz-adv-x="531" 
d="M315 -13q-98 0 -163.5 64t-84.5 178h-64l3 23h58q-2 10 -2 45q0 37 5 61h-64l3 23h65q24 110 102.5 179t178.5 69q76 0 118.5 -25.5t42.5 -73.5q0 -27 -21.5 -47.5t-51.5 -20.5q-48 0 -66 46t14 88q-22 10 -40 10q-56 0 -89.5 -62t-42.5 -163h184l3 -23h-189
q-1 -11 -1 -32q0 -40 6 -74h181l3 -23h-178q41 -156 164 -156q85 0 130 76l10 -6q-27 -73 -83 -114.5t-131 -41.5z" />
    <glyph glyph-name="trademark" unicode="&#x2122;" horiz-adv-x="579" 
d="M260 415l13 2q13 0 15.5 6t4.5 38l4 134q-7 12 -19 16l-16 2l-1 12h106l38 -148h4l47 148h105l-1 -12l-18 -2q-13 -3 -13 -8l5 -166q0 -11 2.5 -14t12.5 -5l15 -3l2 -12h-124v12l19 3q7 1 9 4.5t1 15.5l-3 165h-3l-65 -196h-29l-55 187h-2h-1l-4 -135q-1 -28 3 -35t17 -7
l13 -2l1 -12h-84zM72 415l18 3q11 2 11 7v188h-3q-37 0 -58 -64l-3 -8h-17l6 84h215l3 -85h-17l-3 8q-10 33 -21.5 49t-34.5 16h-6v-189q0 -2 14 -6l14 -3l1 -12h-119v12z" />
    <glyph glyph-name="Omega" unicode="&#x2126;" horiz-adv-x="652" 
d="M387 534q-11 -3 -21 -3q-60 0 -82 100l-17 4q-39 -15 -39 -125v-73l148 -2l4 64q1 16 7 35zM431 600q72 70 182 70q55 0 82.5 -19.5t27.5 -51.5q0 -26 -19 -44.5t-45 -18.5q-30 0 -48.5 21.5t-29.5 70.5l-1 7l-23 5q-20 -9 -27.5 -33.5t-7.5 -92.5v-77h131l-13 -62h-118
v-341q0 -13 47 -16l32 -1l3 -17h-281l2 17l18 1q24 2 29.5 5t5.5 12v343h-150v-344q0 -7 7 -10.5t30 -5.5l18 -1l3 -17h-264l3 17l19 1q23 2 31 5.5t8 11.5v340l-79 4l20 58l58 -2l2 43q2 61 40.5 104t91.5 62t114 19q44 0 70.5 -17.5t30.5 -45.5z" />
    <glyph glyph-name="Delta" unicode="&#x2206;" horiz-adv-x="553" 
d="M211 -13q-87 0 -138.5 33t-51.5 92q0 38 24.5 61t59.5 23t58.5 -20.5t23.5 -54.5q0 -45 -39 -77q10 -13 29.5 -23.5t37.5 -10.5q43 0 62 31t19 110v435q0 13 -47 16l-47 6l-3 17h343l-3 -17l-39 -7q-39 -4 -39 -17v-407q0 -69 -77.5 -129.5t-172.5 -60.5z" />
    <glyph glyph-name="radical" unicode="&#x221a;" horiz-adv-x="889" 
d="M390 536q-15 -5 -25 -5q-31 0 -50.5 23.5t-30.5 76.5l-17 4q-39 -15 -39 -125v-73l148 -2l4 57q1 17 10 44zM814 679v-645q0 -6 6.5 -8t40.5 -8l10 -1l3 -17h-259l3 17l17 1q24 2 29 5t5 12v343h-147v-344q0 -7 7 -10.5t30 -5.5l20 -1l2 -17h-258l2 17l18 1q24 2 29.5 5
t5.5 12v343h-150v-344q0 -7 7 -10.5t30 -5.5l18 -1l3 -17h-264l3 17l19 1q23 2 31 5.5t8 11.5v340l-79 4l20 58l58 -2l2 43q2 61 40.5 104t91.5 62t114 19q45 0 72 -18t29 -48q38 39 96.5 61t121.5 22q61 0 93 -30zM669 552q-49 23 -62 85l-33 9q-52 -20 -52 -151v-58h147
v115z" />
    <glyph glyph-name="approxequal" unicode="&#x2248;" horiz-adv-x="892" 
d="M390 536q-13 -5 -25 -5q-30 0 -51 28.5t-30 71.5l-17 4q-39 -15 -39 -125v-73l148 -2l4 57q1 17 10 44zM431 595q39 39 100 62t125 23q57 0 90.5 -23.5t33.5 -60.5q0 -30 -21 -50.5t-50 -20.5q-69 0 -95 112l-33 9q-59 -22 -59 -146v-63h230l62 16v-419q0 -7 5.5 -9
t29.5 -5q8 -1 12 -2l11 -1l3 -17h-260l3 18l18 1q21 2 27 5t6 12v342h-147v-344q0 -7 7 -10.5t30 -5.5l20 -1l2 -17h-258l2 17l18 1q24 2 29.5 5t5.5 12v343h-150v-344q0 -7 7 -10.5t30 -5.5l18 -1l3 -17h-264l3 17l19 1q23 2 31 5.5t8 11.5v340l-79 4l20 58l58 -2l2 43
q2 61 40.5 104t91.5 62t114 19q46 0 72.5 -18.5t28.5 -49.5z" />
    <glyph glyph-name="apple" unicode="&#xf8ff;" horiz-adv-x="758" 
d="M442 169l176 -88l-87 177l184 63l-184 61l87 176l-176 -87l-62 185l-64 -185l-175 87l87 -176l-186 -62l186 -64l-87 -175l175 88l62 -186zM294 115l-187 -68l68 187l-181 86l181 83l-68 189l187 -69l86 181l83 -181l189 69l-69 -189l180 -82l-180 -85l69 -189l-189 69
l-85 -181z" />
    <glyph glyph-name="fi" unicode="&#xfb01;" horiz-adv-x="597" 
d="M25 17l19 1q23 2 31 5.5t8 11.5v339l-79 5l20 57l58 -1l4 57q6 80 89.5 134t185.5 54q58 0 91 -23.5t33 -60.5q0 -30 -20.5 -50.5t-49.5 -20.5q-70 0 -96 112l-34 9q-57 -22 -57 -146v-64h230l61 17v-419q0 -7 5.5 -9t30.5 -5q8 -1 12 -2l10 -1l3 -17h-259l1 17l18 1
q23 2 29 5t6 12v343h-147v-344q0 -7 7 -10.5t30 -5.5l18 -1l3 -17h-264z" />
    <glyph glyph-name="fl" unicode="&#xfb02;" horiz-adv-x="593" 
d="M519 679v-645q0 -6 6.5 -8t41.5 -8l9 -1l4 -17h-259l3 17l11 1q36 5 39 12q1 2 1 5v343h-147v-344q0 -7 7 -10.5t30 -5.5l18 -1l3 -17h-264l3 17l19 1q23 2 31 5.5t8 11.5v339l-79 4l20 58l58 -1l4 57q6 81 85.5 134.5t179.5 53.5q64 0 97 -30zM375 552q-49 22 -61 85
l-35 9q-51 -19 -51 -146v-64h147v116z" />
    </font>
</defs>
</svg>
