<?xml version="1.0" encoding="utf-8"?>
<!-- Generator: Adobe Illustrator 22.1.0, SVG Export Plug-In . SVG Version: 6.00 Build 0)  -->
<svg version="1.1" id="icons" xmlns="http://www.w3.org/2000/svg" xmlns:xlink="http://www.w3.org/1999/xlink" x="0px" y="0px"
	 viewBox="0 0 37.8 37.8" style="enable-background:new 0 0 37.8 37.8;" xml:space="preserve">
<style type="text/css">
	.st0{fill:#FFFFFF;}
</style>
<path class="st0" d="M27.3,21.7c-1.1-0.9-2.4-0.9-3.3,0l-1.7,1.7c-0.9,0.9-2.3,0.9-3.1,0.1c0,0-1-1-2.4-2.4
	c-1.4-1.4-2.4-2.4-2.4-2.4c-0.4-0.4-0.6-0.9-0.6-1.5c0-0.6,0.3-1.2,0.7-1.6l1.7-1.7c0.9-0.9,0.9-2.3,0.1-3.3l-3.9-5.1
	c-0.8-1-2.5-1-3.4-0.1L5.4,8.8C4.5,9.7,3.6,11.7,4,14.3c0.5,3.5,3,7.6,7.5,12c5,5,9.5,7.6,13.3,7.6c2.5,0,3.8-1.1,4.2-1.5l3.4-3.4
	c0.5-0.5,0.8-1.2,0.7-1.8c0-0.6-0.3-1.2-0.8-1.6L27.3,21.7z M31.2,27.9l-3.4,3.4c-0.2,0.2-1.1,1-3,1c-2.3,0-6.3-1.2-12.2-7.1
	c-5.2-5.2-6.7-8.9-7-11.1c-0.4-2.7,0.8-4,0.9-4.1l3.4-3.4c0.2-0.2,0.4-0.3,0.6-0.3c0.2,0,0.3,0.1,0.4,0.2l3.9,5.1
	c0.3,0.3,0.5,0.7,0,1.2l-1.7,1.7c-0.7,0.7-1.2,1.7-1.2,2.7c0,1,0.3,2,1,2.7c0,0,1,1.1,2.4,2.4c1.4,1.5,2.4,2.4,2.4,2.4
	c0.7,0.7,1.6,1,2.6,1c1.1,0,2.1-0.4,2.8-1.2l1.7-1.7c0.3-0.3,0.7-0.3,1.2,0.1l5,3.9c0.1,0.1,0.2,0.3,0.2,0.4
	C31.5,27.5,31.4,27.7,31.2,27.9z"/>
<path class="st0" d="M30.4,7.3c-2.6-2.6-6-3.8-8.8-3.3C21.2,4.1,20.9,4.5,21,5c0.1,0.4,0.5,0.7,0.9,0.6c2.4-0.4,5.2,0.7,7.4,2.9
	c2.2,2.2,3.3,5,2.9,7.3c-0.1,0.4,0.2,0.9,0.7,0.9c0,0,0.1,0,0.1,0c0.4,0,0.7-0.3,0.8-0.7C34.3,13.2,33,9.9,30.4,7.3z"/>
<path class="st0" d="M23.1,9.1c0.9-0.1,2.4,0.4,3.8,1.8c1.4,1.4,1.8,2.9,1.8,3.8c0,0.4,0.3,0.8,0.8,0.9c0,0,0,0,0.1,0
	c0.4,0,0.8-0.3,0.8-0.8c0.1-1.6-0.8-3.5-2.3-5c-1.5-1.5-3.4-2.4-5.1-2.2c-0.4,0-0.8,0.4-0.7,0.9C22.2,8.8,22.6,9.2,23.1,9.1z"/>
</svg>
