<?xml version="1.0" encoding="utf-8"?>
<!-- Generator: Adobe Illustrator 22.1.0, SVG Export Plug-In . SVG Version: 6.00 Build 0)  -->
<svg version="1.1" id="Layer_1" xmlns="http://www.w3.org/2000/svg" xmlns:xlink="http://www.w3.org/1999/xlink" x="0px" y="0px"
	 viewBox="0 0 245.1 20" style="enable-background:new 0 0 245.1 20;" xml:space="preserve">
<style type="text/css">
	.st0{fill:#07182E;}
</style>
<g>
	<path class="st0" d="M54.3,1.6h0.8v0.9c0,0.7-0.4,1-1.1,1h-0.8V2.6C53.3,1.9,53.6,1.6,54.3,1.6z M53.3,6.1c0-0.7,0.4-1,1.1-1h0.8
		v9.7h-0.8c-0.7,0-1.1-0.4-1.1-1V6.1z"/>
	<path class="st0" d="M60.2,12.8c0.2,0.2,0.5,0.3,0.9,0.3v0.9c0,0.5-0.2,0.7-0.6,0.8c-0.3,0.1-0.7,0.1-1-0.2
		c-0.5-0.2-0.9-0.6-1.2-1.1c-0.4-0.5-0.5-1.2-0.5-2V2.6c0-0.7,0.4-1,1.1-1h0.8v10.1C59.7,12.1,59.8,12.5,60.2,12.8z"/>
	<path class="st0" d="M70.1,5.9c1,0.8,1.5,1.8,1.5,2.9v6H71c-0.5,0-0.8-0.3-1.1-0.8c-0.8,0.8-1.9,1.1-3,1.1c-1.2,0-2.3-0.4-3.2-1.1
		c-1-0.8-1.5-1.8-1.5-2.9V8.7c0-1.1,0.5-2.1,1.5-2.9c0.9-0.8,2-1.1,3.2-1.1C68.1,4.7,69.2,5.1,70.1,5.9z M66.9,6.7
		c-0.8,0-1.5,0.2-2,0.7c-0.5,0.4-0.8,0.8-0.8,1.5v2.3c0,0.5,0.2,1,0.8,1.5c0.5,0.5,1.2,0.7,2,0.7s1.5-0.2,2-0.7
		c0.5-0.4,0.8-0.8,0.8-1.5V8.9c0-0.5-0.2-1-0.8-1.5C68.4,6.9,67.7,6.7,66.9,6.7z"/>
	<path class="st0" d="M85.5,6.1c0-0.7,0.4-1,1.1-1h0.8v6c0,1.2-0.4,2.2-1.1,2.9c-0.7,0.8-1.7,1.1-2.9,1.1c-1.2,0-2.2-0.5-2.9-1.2
		c-0.8,0.8-1.8,1.2-2.9,1.2c-1.2,0-2.2-0.4-2.9-1.1c-0.7-0.7-1.1-1.7-1.1-2.9v-5c0-0.7,0.4-1,1.1-1h0.8v6c0,0.8,0.2,1.3,0.5,1.6
		c0.3,0.3,0.8,0.5,1.5,0.5s1.1-0.2,1.5-0.5s0.5-0.9,0.5-1.6v-5c0-0.7,0.4-1,1.1-1h0.8v6c0,0.7,0.2,1.2,0.5,1.6
		c0.4,0.4,0.8,0.5,1.5,0.5c0.7,0,1.1-0.2,1.5-0.5c0.3-0.4,0.5-0.8,0.5-1.6L85.5,6.1L85.5,6.1z"/>
	<path class="st0" d="M98.3,5l-3.8,10.7c-0.1,0.2-0.2,0.5-0.3,0.8c-0.1,0.2-0.2,0.5-0.3,0.6c-0.3,0.4-0.6,0.8-1.1,1
		c-0.4,0.2-0.7,0.2-1,0.2c-0.4-0.1-0.6-0.4-0.6-0.8v-0.9c0.2,0,0.5-0.1,0.7-0.2c0.2-0.2,0.5-0.3,0.5-0.5l0.4-1
		c-0.6-0.2-1-0.5-1.1-0.9l-2.8-8c-0.1-0.2-0.1-0.5,0-0.6C88.8,5.2,89,5,89.3,5h1.2l2.8,8l0,0l2.6-7.4c0.2-0.5,0.5-0.8,1-0.8L98.3,5
		L98.3,5z"/>
	<path class="st0" d="M106.2,5.2c0.5,0.3,0.9,0.6,1.2,1c0.4,0.5,0.5,1.1,0.5,1.7c0,0.5-0.1,1-0.3,1.5c-0.2,0.4-0.5,0.7-0.8,0.9
		c-0.4,0.2-0.8,0.5-1.1,0.5c-0.4,0.2-0.8,0.2-1.3,0.2H102c-0.2,0-0.3,0-0.4,0c-0.2-0.1-0.2-0.1-0.3-0.2v0.8c0,0.5,0.2,0.8,0.7,1.1
		c0.4,0.2,0.8,0.4,1.3,0.4c0.5,0.1,0.9,0,1.4-0.1c0.4-0.1,0.7-0.2,0.9-0.4c0.1-0.1,0.2-0.2,0.2-0.2c0.3-0.4,0.7-0.4,1.1-0.2l0.9,0.5
		c-0.2,0.4-0.5,0.8-0.8,1.1c-0.5,0.5-1,0.8-1.7,1c-0.6,0.2-1.2,0.3-1.9,0.3c-0.6,0-1.1-0.1-1.5-0.2c-0.5-0.2-1-0.3-1.4-0.6
		c-0.5-0.3-0.8-0.8-1.1-1.3c-0.2-0.5-0.4-1.1-0.4-1.7V8.2c0-0.5,0.2-1,0.3-1.5c0.3-0.7,0.9-1.2,1.6-1.6c0.7-0.3,1.5-0.5,2.3-0.5
		C104.5,4.7,105.4,4.9,106.2,5.2z M105.5,8.9c0.3-0.2,0.5-0.5,0.5-0.8c0-0.4-0.1-0.7-0.4-0.9c-0.4-0.3-0.9-0.5-1.5-0.5
		c-0.5,0-1.1,0-1.5,0.2c-0.4,0.1-0.8,0.2-1,0.5c-0.3,0.2-0.5,0.5-0.5,0.9v0.9h3.2C104.9,9.1,105.2,9,105.5,8.9z"/>
	<path class="st0" d="M109.7,8.5c0-1.1,0.4-2.1,1.1-2.7c0.6-0.5,1.4-0.8,2.2-0.8h1.3v0.8c0,0.7-0.3,1.1-1,1.1h-0.3
		c-0.4,0-0.7,0.2-0.9,0.3c-0.3,0.3-0.5,0.7-0.5,1.1v6.4h-0.8c-0.7,0-1.1-0.4-1.1-1L109.7,8.5L109.7,8.5z"/>
	<path class="st0" d="M127,7.2c-0.3-0.3-0.8-0.5-1.5-0.5s-1.1,0.2-1.5,0.5c-0.4,0.4-0.5,0.9-0.5,1.6v6h-0.8c-0.7,0-1.1-0.4-1.1-1v-5
		c0-0.7-0.2-1.1-0.5-1.6c-0.4-0.4-0.8-0.5-1.5-0.5c-0.7,0-1.1,0.2-1.5,0.5c-0.3,0.4-0.5,0.9-0.5,1.6v6h-0.8c-0.7,0-1.1-0.4-1.1-1v-5
		c0-1.2,0.4-2.2,1.1-2.9c0.7-0.8,1.7-1.1,2.9-1.1c1,0,1.8,0.3,2.5,0.9c0.1,0.1,0.2,0.2,0.4,0.4c0.2-0.2,0.2-0.3,0.4-0.4
		c0.7-0.6,1.5-0.9,2.6-0.9c1.2,0,2.1,0.4,2.9,1.1c0.7,0.8,1.1,1.7,1.1,2.9v6h-0.8c-0.7,0-1.1-0.4-1.1-1v-5
		C127.5,8.1,127.3,7.5,127,7.2z"/>
	<path class="st0" d="M139.2,5.9c1,0.8,1.5,1.8,1.5,2.9v6H140c-0.5,0-0.8-0.3-1.1-0.8c-0.8,0.8-1.9,1.1-3,1.1
		c-1.2,0-2.3-0.4-3.2-1.1c-1-0.8-1.5-1.8-1.5-2.9V8.7c0-1.1,0.5-2.1,1.5-2.9c0.9-0.8,2-1.1,3.2-1.1C137.2,4.7,138.3,5.1,139.2,5.9z
		 M136,6.7c-0.8,0-1.5,0.2-2,0.7c-0.5,0.4-0.8,0.8-0.8,1.5v2.3c0,0.5,0.2,1,0.8,1.5c0.5,0.5,1.2,0.7,2,0.7s1.5-0.2,2-0.7
		c0.5-0.4,0.8-0.8,0.8-1.5V8.9c0-0.5-0.2-1-0.8-1.5C137.4,6.9,136.8,6.7,136,6.7z"/>
	<path class="st0" d="M142.9,8.5c0-1.1,0.4-2.1,1.1-2.7c0.6-0.5,1.4-0.8,2.2-0.8h1.3v0.8c0,0.7-0.3,1.1-1,1.1h-0.3
		c-0.4,0-0.7,0.2-0.9,0.3c-0.3,0.3-0.5,0.7-0.5,1.1v6.4H144c-0.7,0-1.1-0.4-1.1-1L142.9,8.5L142.9,8.5z"/>
	<path class="st0" d="M149,2.6c0-0.7,0.4-1,1.1-1h0.8v7.6h0.7c0.4,0,0.8,0,1-0.4l1.8-3c0.3-0.5,0.7-0.7,1.1-0.7h1.5l-2.3,3.8
		c-0.2,0.2-0.2,0.4-0.4,0.5c0.6,0.3,1.1,0.8,1.5,1.6l1.7,3.8h-1.2c-0.6,0-1-0.2-1.1-0.6l-1.1-2.5c-0.2-0.5-0.6-0.8-1.1-0.8H151v3.8
		h-0.8c-0.7,0-1.1-0.4-1.1-1L149,2.6L149,2.6z"/>
	<path class="st0" d="M165.5,5.2c0.5,0.3,0.9,0.6,1.2,1c0.4,0.5,0.5,1.1,0.5,1.7c0,0.5-0.1,1-0.3,1.5c-0.2,0.4-0.5,0.7-0.8,0.9
		c-0.4,0.2-0.8,0.5-1.1,0.5c-0.4,0.2-0.8,0.2-1.3,0.2h-2.4c-0.2,0-0.3,0-0.4,0c-0.2-0.1-0.2-0.1-0.3-0.2v0.8c0,0.5,0.2,0.8,0.7,1.1
		c0.4,0.2,0.8,0.4,1.3,0.4c0.5,0.1,0.9,0,1.4-0.1c0.4-0.1,0.7-0.2,0.9-0.4c0.1-0.1,0.2-0.2,0.2-0.2c0.3-0.4,0.7-0.4,1.1-0.2l0.9,0.5
		c-0.2,0.4-0.5,0.8-0.8,1.1c-0.5,0.5-1,0.8-1.7,1c-0.6,0.2-1.2,0.3-1.9,0.3c-0.6,0-1.1-0.1-1.5-0.2c-0.5-0.2-1-0.3-1.4-0.6
		c-0.5-0.3-0.8-0.8-1.1-1.3s-0.4-1.1-0.4-1.7V8.2c0-0.5,0.2-1,0.3-1.5c0.3-0.7,0.9-1.2,1.6-1.6c0.7-0.3,1.5-0.5,2.3-0.5
		C163.8,4.7,164.7,4.9,165.5,5.2z M164.8,8.9c0.3-0.2,0.5-0.5,0.5-0.8c0-0.4-0.1-0.7-0.4-0.9c-0.4-0.3-0.9-0.5-1.5-0.5
		c-0.5,0-1.1,0-1.5,0.2c-0.4,0.1-0.8,0.2-1,0.5c-0.3,0.2-0.5,0.5-0.5,0.9v0.9h3.2C164.2,9.1,164.5,9,164.8,8.9z"/>
	<path class="st0" d="M173.4,5v0.8c0,0.7-0.4,1.1-1,1.1h-1.3v4.7c0,0.5,0.2,0.9,0.5,1.1c0.2,0.2,0.5,0.3,0.9,0.3V14
		c0,0.5-0.2,0.7-0.6,0.8c-0.3,0.1-0.7,0.1-1-0.2c-0.5-0.2-0.9-0.6-1.2-1.1c-0.3-0.5-0.5-1.2-0.5-2v-9c0-0.7,0.4-1,1.1-1h0.9v3.5
		L173.4,5L173.4,5z"/>
	<path class="st0" d="M176,1.6h0.8v0.9c0,0.7-0.4,1-1.1,1H175V2.6C175,1.9,175.4,1.6,176,1.6z M175,6.1c0-0.7,0.4-1,1.1-1h0.8v9.7
		H176c-0.7,0-1.1-0.4-1.1-1V6.1z"/>
	<path class="st0" d="M180.6,5.9c0.8-0.8,1.9-1.1,3.1-1.1c1.2,0,2.2,0.4,3.1,1.1c0.9,0.8,1.4,1.7,1.4,2.8v6.2h-0.8
		c-0.7,0-1.1-0.4-1.1-1V8.7c0-0.5-0.2-0.9-0.7-1.3c-0.5-0.5-1.1-0.6-1.8-0.6c-0.8,0-1.4,0.2-1.8,0.6c-0.5,0.4-0.7,0.8-0.7,1.3v6.2
		h-0.8c-0.7,0-1.1-0.4-1.1-1V8.8C179.3,7.5,179.7,6.6,180.6,5.9z"/>
	<path class="st0" d="M198,5.9c1,0.8,1.5,1.8,1.5,2.9v5.9c0,0.6-0.2,1.1-0.4,1.6c-0.5,1-1.5,1.6-2.5,1.9c-0.5,0.2-1.1,0.2-1.7,0.2
		c-0.5,0-1-0.1-1.5-0.2c-0.5-0.1-0.8-0.3-0.9-0.5s-0.2-0.5-0.1-0.8l0.2-0.8c0.5,0.2,1,0.3,1.7,0.3c0.6,0,1.2-0.1,1.7-0.2
		c0.9-0.2,1.4-0.8,1.4-1.7v-0.4c-0.8,0.5-1.7,0.8-2.8,0.8c-1.2,0-2.3-0.4-3.2-1.1c-1-0.8-1.5-1.8-1.5-2.9V8.5c0-1.1,0.5-2.1,1.5-2.9
		c0.9-0.8,2-1.1,3.2-1.1C196,4.7,197,5.1,198,5.9z M194.7,6.7c-0.8,0-1.5,0.2-2,0.7c-0.5,0.4-0.8,0.8-0.8,1.5v2.3
		c0,0.5,0.2,1,0.8,1.5c0.5,0.5,1.2,0.7,2,0.7s1.5-0.2,2-0.7c0.5-0.4,0.8-0.8,0.8-1.5V8.9c0-0.5-0.2-1-0.8-1.5
		C196.2,6.9,195.6,6.7,194.7,6.7z"/>
	<path class="st0" d="M202.9,12.6h0.8v1.1c0,0.7-0.4,1-1.1,1h-0.8v-1.1C201.8,13,202.2,12.6,202.9,12.6z"/>
	<path class="st0" d="M205.8,8.6c0-1.1,0.5-2,1.4-2.8c0.8-0.8,1.9-1.1,3.1-1.1c1.1,0,2.2,0.4,3.1,1.1c0.5,0.5,0.9,0.9,1.1,1.5
		l-0.8,0.5c-0.5,0.2-0.9,0.2-1.3-0.2c-0.2-0.2-0.2-0.2-0.2-0.3c-0.5-0.5-1.1-0.6-1.8-0.6c-0.8,0-1.4,0.2-1.8,0.6
		c-0.5,0.4-0.7,0.8-0.7,1.3v2.6c0,0.5,0.2,0.9,0.7,1.3c0.5,0.4,1.1,0.6,1.8,0.6c0.8,0,1.4-0.2,1.8-0.6c0.1-0.1,0.2-0.2,0.2-0.3
		c0.4-0.4,0.8-0.5,1.3-0.2l0.8,0.5c-0.2,0.6-0.6,1.1-1.1,1.5c-0.8,0.7-1.9,1.1-3.1,1.1c-1.2,0-2.2-0.4-3.1-1.1
		c-0.9-0.8-1.4-1.7-1.4-2.8V8.6z"/>
	<path class="st0" d="M223.9,5.9c1,0.8,1.5,1.8,1.5,2.9v2.3c0,1.1-0.5,2.1-1.5,2.9c-0.9,0.8-2,1.1-3.2,1.1c-1.2,0-2.3-0.4-3.2-1.1
		c-1-0.8-1.5-1.8-1.5-2.9V8.8c0-1.1,0.5-2.1,1.5-2.9c0.9-0.8,2-1.1,3.2-1.1C221.8,4.7,223,5.1,223.9,5.9z M220.6,6.7
		c-0.8,0-1.5,0.2-2,0.7c-0.5,0.4-0.8,0.8-0.8,1.5v2.3c0,0.5,0.2,1,0.8,1.5c0.5,0.5,1.2,0.7,2,0.7s1.5-0.2,2-0.7
		c0.5-0.4,0.8-0.8,0.8-1.5V8.9c0-0.5-0.2-1-0.8-1.5C222,6.9,221.4,6.7,220.6,6.7z"/>
	<path class="st0" d="M238.4,7.2c-0.3-0.3-0.8-0.5-1.5-0.5c-0.6,0-1.1,0.2-1.5,0.5c-0.4,0.4-0.5,0.9-0.5,1.6v6h-0.8
		c-0.7,0-1.1-0.4-1.1-1v-5c0-0.7-0.2-1.1-0.5-1.6c-0.4-0.4-0.8-0.5-1.5-0.5c-0.7,0-1.1,0.2-1.5,0.5c-0.3,0.4-0.5,0.9-0.5,1.6v6h-0.8
		c-0.7,0-1.1-0.4-1.1-1v-5c0-1.2,0.4-2.2,1.1-2.9c0.7-0.8,1.7-1.1,2.9-1.1c1,0,1.8,0.3,2.5,0.9c0.1,0.1,0.2,0.2,0.4,0.4
		c0.2-0.2,0.2-0.3,0.4-0.4c0.7-0.6,1.5-0.9,2.6-0.9c1.2,0,2.1,0.4,2.9,1.1c0.7,0.8,1.1,1.7,1.1,2.9v6h-0.8c-0.7,0-1.1-0.4-1.1-1v-5
		C239,8.1,238.8,7.5,238.4,7.2z"/>
</g>
<g>
	<path class="st0" d="M7.9,8.7c0-0.8-0.1-1.7-1-1.7c-0.6,0-1,0.2-1,0.8c0,0.7,0.5,1,1,1.3c0.5,0.4,1.6,1.1,2.1,1.5
		c0.6,0.6,0.8,1.1,0.8,2c0,1.8-1.1,2.7-2.9,2.7c-2.1,0-2.8-1.1-2.8-2.8v-0.7h1.8v0.5C5.8,13.3,6,14,6.9,14C7.6,14,8,13.6,8,12.9
		c0-0.5-0.2-0.9-0.7-1.2C6.3,11,5.2,10.5,4.5,9.5C4.2,9.1,4,8.6,4,8.1C4,6.5,5,5.6,6.8,5.6c2.8,0,2.7,2.1,2.8,3.1
		C9.6,8.7,7.9,8.7,7.9,8.7z"/>
	<path class="st0" d="M11.8,15.2V5.9h1.8v9.4H11.8z"/>
	<path class="st0" d="M15.1,5.9h5.8v1.4h-2.1v8h-1.8v-8H15L15.1,5.9L15.1,5.9z"/>
	<path class="st0" d="M22.4,15.2V5.9h4.9v1.4h-3.1v2.4H27V11h-2.9v2.9h3.1v1.4L22.4,15.2L22.4,15.2z"/>
	<path class="st0" d="M32.8,15.2V5.9h2.8c0.8,0,1.5,0.1,2,0.7c0.4,0.5,0.5,1.1,0.5,1.7c0,0.8-0.2,1.6-1.1,2l0,0c1,0.2,1.4,1,1.4,2.1
		c0,0.4,0,0.8-0.2,1.1c-0.4,1.1-1.1,1.7-2.3,1.7H32.8L32.8,15.2z M34.9,9.7c0.5,0,1,0,1.2-0.3c0.2-0.2,0.2-0.5,0.2-1
		c0-0.7-0.2-1.1-0.9-1.1h-0.8v2.4C34.6,9.7,34.9,9.7,34.9,9.7z M34.9,13.8c0.4,0,0.8,0,1.1-0.1c0.5-0.2,0.5-0.8,0.5-1.3
		c0-1-0.2-1.5-1.3-1.5h-0.7v2.8H34.9L34.9,13.8z"/>
	<path class="st0" d="M42.4,8.3c0.2,0.5,0.3,0.9,0.4,1.5l0,0C43,9.1,43.2,8.5,43.4,8l0.8-2.1h1.9l-2.5,5.4v4h-1.8v-4l-2.5-5.4h1.9
		L42.4,8.3z"/>
</g>
</svg>
