<?xml version="1.0" encoding="utf-8"?>
<!-- Generator: Adobe Illustrator 21.1.0, SVG Export Plug-In . SVG Version: 6.00 Build 0)  -->
<svg version="1.1" id="Icons" xmlns="http://www.w3.org/2000/svg" xmlns:xlink="http://www.w3.org/1999/xlink" x="0px" y="0px"
	 viewBox="0 0 20 19.1" style="enable-background:new 0 0 20 19.1;" xml:space="preserve">
<style type="text/css">
	.st0{fill:#07182E;}
</style>
<path id="LinkedIn_3_" class="st0" d="M20,11.7v7.4h-4.2v-6.9c0-1.7-0.7-2.9-2.2-2.9c-1.2,0-2,0.8-2.3,1.6c-0.1,0.3-0.2,0.7-0.2,1
	v7.2H6.9c0,0,0.1-11.8,0-12.9h4.2V8h0.1h-0.1l0,0c0.7-0.9,1.6-2.1,3.9-2.1C17.8,5.9,20,7.8,20,11.7z M2.4,0C1,0,0,1,0,2.2
	s0.9,2.2,2.4,2.2l0,0c1.5,0,2.4-1,2.4-2.2S3.9,0,2.4,0z M0.2,19.1h4.2V6.2H0.2V19.1z"/>
</svg>
