<?xml version="1.0" encoding="utf-8"?>
<!-- Generator: Adobe Illustrator 22.1.0, SVG Export Plug-In . SVG Version: 6.00 Build 0)  -->
<svg version="1.1" id="icons" xmlns="http://www.w3.org/2000/svg" xmlns:xlink="http://www.w3.org/1999/xlink" x="0px" y="0px"
	 viewBox="0 0 100 100" style="enable-background:new 0 0 100 100;" xml:space="preserve">
<style type="text/css">
	.st0{fill:#FFFFFF;}
</style>
<g>
	<path class="st0" d="M97.9,10.6c-0.2-0.6-0.8-0.9-1.4-0.9l-6.2,0.1l0.1-6.2c0-0.6-0.4-1.2-0.9-1.4c-0.6-0.2-1.2-0.1-1.7,0.3
		L76.2,14c-0.3,0.3-0.4,0.7-0.5,1.1l-0.1,7.1L50.1,47.7c-0.3-0.1-0.6-0.1-0.9-0.1c-1.8,0-3.2,1.4-3.2,3.2s1.4,3.2,3.2,3.2
		s3.2-1.4,3.2-3.2c0-0.3,0-0.6-0.1-0.9l25.5-25.5l7.2-0.1c0.4,0,0.8-0.2,1.1-0.5l11.6-11.6C98,11.8,98.1,11.1,97.9,10.6z M78.8,15.8
		l8.4-8.4l-0.1,3.3L78.7,19L78.8,15.8z M84.2,21.2l-3.4,0.1l8.4-8.4l3.4-0.1L84.2,21.2z"/>
	<path class="st0" d="M60.6,33.2c0.4-0.7,0.1-1.7-0.6-2.1c-3.3-1.8-7-2.8-10.8-2.8c-12.4,0-22.4,10.1-22.4,22.4
		c0,12.4,10.1,22.4,22.4,22.4c12.4,0,22.4-10.1,22.4-22.4c0-3.8-1-7.5-2.8-10.8c-0.4-0.7-1.4-1-2.1-0.6s-1,1.4-0.6,2.1
		c1.6,2.8,2.4,6,2.4,9.3c0,10.7-8.7,19.3-19.3,19.3c-10.7,0-19.3-8.7-19.3-19.3s8.7-19.3,19.3-19.3c3.3,0,6.5,0.8,9.3,2.4
		C59.2,34.2,60.2,34,60.6,33.2z"/>
	<path class="st0" d="M69.8,24.4c0.5-0.7,0.3-1.7-0.4-2.2c-5.9-4.2-12.9-6.4-20.2-6.4c-19.3,0-35,15.7-35,35s15.7,35,35,35
		s35-15.7,35-35c0-7.3-2.2-14.3-6.4-20.2c-0.5-0.7-1.5-0.9-2.2-0.4s-0.9,1.5-0.4,2.2c3.8,5.4,5.9,11.8,5.9,18.4
		c0,17.6-14.3,31.9-31.9,31.9S17.3,68.4,17.3,50.8s14.3-31.9,31.9-31.9c6.7,0,13,2,18.4,5.9C68.3,25.3,69.3,25.1,69.8,24.4z"/>
	<path class="st0" d="M87.2,25.5c-0.7,0.4-1,1.4-0.5,2.1c4.3,6.9,6.5,14.9,6.5,23.1c0,24.3-19.8,44.1-44.1,44.1S5,75,5,50.7
		S24.8,6.6,49.1,6.6c8.2,0,16.2,2.3,23.2,6.6c0.7,0.4,1.7,0.2,2.1-0.5s0.2-1.7-0.5-2.1c-7.4-4.6-16-7-24.8-7C23.2,3.6,2,24.7,2,50.8
		C2,76.8,23.2,98,49.2,98s47.2-21.2,47.2-47.2c0-8.8-2.4-17.3-7-24.7C88.9,25.3,88,25.1,87.2,25.5z"/>
	<path class="st0" d="M49.2,43.8c0.9,0,1.5-0.7,1.5-1.5c0-0.9-0.7-1.5-1.5-1.5c-5.5,0-10.1,4.5-10.1,10.1S43.6,61,49.2,61
		c5.5,0,10.1-4.5,10.1-10.1c0-0.9-0.7-1.5-1.5-1.5c-0.9,0-1.5,0.7-1.5,1.5c0,3.8-3.1,7-7,7c-3.8,0-7-3.1-7-7S45.3,43.8,49.2,43.8z"
		/>
</g>
</svg>
