<?xml version="1.0" encoding="utf-8"?>
<!-- Generator: Adobe Illustrator 22.1.0, SVG Export Plug-In . SVG Version: 6.00 Build 0)  -->
<svg version="1.1" id="icons" xmlns="http://www.w3.org/2000/svg" xmlns:xlink="http://www.w3.org/1999/xlink" x="0px" y="0px"
	 viewBox="0 0 100 100" style="enable-background:new 0 0 100 100;" xml:space="preserve">
<style type="text/css">
	.st0{fill:#FFFFFF;}
</style>
<g>
	<path class="st0" d="M91.7,25.8H8.3C7.6,25.8,7,26.3,7,27v36.2c0,0.7,0.6,1.3,1.3,1.3h83.5c0.7,0,1.3-0.6,1.3-1.3V27
		C93,26.3,92.4,25.8,91.7,25.8z M90.5,61.9h-81V28.3h81V61.9z"/>
	<path class="st0" d="M13.9,53c2.3,0,4.2,1.9,4.2,4.2c0,0.1,0,0.3,0,0.5c0,0.4,0.1,0.7,0.3,1c0.2,0.3,0.6,0.4,0.9,0.4h61.4
		c0.4,0,0.7-0.2,0.9-0.4c0.2-0.3,0.4-0.6,0.3-1c0-0.2,0-0.3,0-0.5c0-2.3,1.9-4.2,4.2-4.2c0.7,0,1.3-0.6,1.3-1.3V37.8
		c0-0.7-0.6-1.3-1.3-1.3c-2.3,0-4.2-1.9-4.2-4.2c0-0.7-0.6-1.3-1.3-1.3H19.3c-0.7,0-1.3,0.6-1.3,1.3c0,2.3-1.9,4.2-4.2,4.2
		c-0.3,0-0.7,0.1-0.9,0.4c-0.2,0.2-0.4,0.6-0.4,0.9l0,13.9C12.6,52.4,13.2,53,13.9,53z M15.1,39c2.7-0.5,4.8-2.6,5.4-5.4h59.1
		c0.5,2.7,2.6,4.8,5.4,5.4v11.6c-2.9,0.6-5.2,3-5.4,6H20.5c-0.3-3-2.5-5.4-5.4-6L15.1,39z"/>
	<path class="st0" d="M50,54.6c5.2,0,9.5-4.2,9.5-9.5c0-5.2-4.2-9.5-9.5-9.5c-5.2,0-9.5,4.2-9.5,9.5C40.5,50.3,44.8,54.6,50,54.6z
		 M50,38.2c3.8,0,7,3.1,7,7c0,3.8-3.1,7-7,7c-3.8,0-7-3.1-7-7C43,41.3,46.2,38.2,50,38.2z"/>
	<path class="st0" d="M87.4,66.8H12.6c-0.7,0-1.3,0.6-1.3,1.3s0.6,1.3,1.3,1.3h74.9c0.7,0,1.3-0.6,1.3-1.3S88.1,66.8,87.4,66.8z"/>
	<path class="st0" d="M83.1,71.7H16.9c-0.7,0-1.3,0.6-1.3,1.3c0,0.7,0.6,1.3,1.3,1.3h66.2c0.7,0,1.3-0.6,1.3-1.3
		C84.4,72.3,83.8,71.7,83.1,71.7z"/>
	<path class="st0" d="M29.3,49.4c2.4,0,4.3-1.9,4.3-4.3c0-2.4-1.9-4.3-4.3-4.3c-2.4,0-4.3,1.9-4.3,4.3C25.1,47.5,27,49.4,29.3,49.4z
		 M29.3,43.3c1,0,1.8,0.8,1.8,1.8c0,1-0.8,1.8-1.8,1.8c-1,0-1.8-0.8-1.8-1.8C27.6,44.1,28.4,43.3,29.3,43.3z"/>
	<path class="st0" d="M70.7,49.4c2.4,0,4.3-1.9,4.3-4.3c0-2.4-1.9-4.3-4.3-4.3c-2.4,0-4.3,1.9-4.3,4.3
		C66.4,47.5,68.3,49.4,70.7,49.4z M70.7,43.3c1,0,1.8,0.8,1.8,1.8c0,1-0.8,1.8-1.8,1.8c-1,0-1.8-0.8-1.8-1.8
		C68.9,44.1,69.7,43.3,70.7,43.3z"/>
</g>
</svg>
