<?xml version="1.0" encoding="utf-8"?>
<!-- Generator: Adobe Illustrator 22.1.0, SVG Export Plug-In . SVG Version: 6.00 Build 0)  -->
<svg version="1.1" id="icons" xmlns="http://www.w3.org/2000/svg" xmlns:xlink="http://www.w3.org/1999/xlink" x="0px" y="0px"
	 viewBox="0 0 100 100" style="enable-background:new 0 0 100 100;" xml:space="preserve">
<style type="text/css">
	.st0{fill:#FFFFFF;}
</style>
<g>
	<path class="st0" d="M70.7,86.6H29.3c-0.6,0-1.2,0.5-1.2,1.2c0,0.6,0.5,1.2,1.2,1.2h41.5c0.6,0,1.2-0.5,1.2-1.2
		C71.9,87.1,71.4,86.6,70.7,86.6z"/>
	<path class="st0" d="M51.2,19.3c1.7-0.5,3-2.1,3-4c0-2.3-1.9-4.2-4.2-4.2c-2.3,0-4.2,1.9-4.2,4.2c0,1.9,1.3,3.5,3,4v2.4h2.3V19.3z
		 M48.1,15.2c0-1,0.8-1.9,1.9-1.9s1.9,0.8,1.9,1.9S51,17.1,50,17.1S48.1,16.3,48.1,15.2z"/>
	<g>
		<polygon class="st0" points="81.2,58.6 81.2,58.5 59.5,58.5 59.5,58.6 		"/>
		<polygon class="st0" points="40.5,58.6 40.5,58.5 18.8,58.5 18.8,58.6 		"/>
		<path class="st0" d="M24.2,42.6c0.2-0.6-0.1-1.3-0.7-1.5c-0.6-0.2-1.3,0.1-1.5,0.7l-5.6,16.7h2.5L24.2,42.6z"/>
		<path class="st0" d="M70.4,26.5l4.1,12.1c0.2,0.5,0.6,0.8,1.1,0.8c0.1,0,0.3,0,0.4-0.1c0.6-0.2,0.9-0.9,0.7-1.5l-5.2-15.3
			c0,0,0,0,0,0c0,0,0-0.1,0-0.1c0,0,0,0,0-0.1c0,0,0,0,0-0.1c0,0,0,0,0-0.1c0,0,0,0,0-0.1c0,0,0,0-0.1-0.1c0,0,0,0,0,0
			c0,0,0,0-0.1-0.1c0,0,0,0-0.1,0c0,0,0,0-0.1,0c0,0,0,0-0.1,0c0,0,0,0-0.1,0c0,0-0.1,0-0.1,0c0,0,0,0,0,0c0,0,0,0,0,0
			c0,0,0,0-0.1,0c0,0-0.1,0-0.1,0c0,0-0.1,0-0.1,0c0,0-0.1,0-0.1,0c0,0,0,0,0,0H51.2h-2.3H31.7h-2c0,0,0,0,0,0c0,0-0.1,0-0.1,0
			c0,0,0,0-0.1,0c0,0-0.1,0-0.1,0c0,0-0.1,0-0.1,0c0,0,0,0,0,0c0,0,0,0,0,0c0,0-0.1,0-0.1,0c0,0,0,0-0.1,0c0,0,0,0-0.1,0
			c0,0,0,0-0.1,0c0,0,0,0-0.1,0c0,0,0,0-0.1,0.1c0,0,0,0,0,0c0,0,0,0-0.1,0.1c0,0,0,0,0,0.1c0,0,0,0,0,0.1c0,0,0,0,0,0.1
			c0,0,0,0,0,0.1c0,0,0,0.1,0,0.1c0,0,0,0,0,0l-5.2,15.3c-0.2,0.6,0.1,1.3,0.7,1.5c0.1,0,0.3,0.1,0.4,0.1c0.5,0,0.9-0.3,1.1-0.8
			l4.1-12.1l10.8,32h2.5L31.3,24h17.6v58.3H33.7c-0.6,0-1.2,0.5-1.2,1.2c0,0.6,0.5,1.2,1.2,1.2h32.6c0.6,0,1.2-0.5,1.2-1.2
			c0-0.6-0.5-1.2-1.2-1.2H51.2V24h17.6L57.1,58.5h2.5L70.4,26.5z"/>
		<path class="st0" d="M84,59.5c0,0,0-0.1,0-0.1c0,0,0,0,0-0.1l-0.3-0.8h-2.5l0,0H59.5l0,0h-2.5l-0.3,0.8c0,0,0,0,0,0.1
			c0,0,0,0.1,0,0.1c0,0,0,0.1,0,0.1c0,0,0,0,0,0.1c0,0,0,0,0,0c0,7.5,6.1,13.6,13.6,13.6c7.5,0,13.6-6.1,13.6-13.6c0,0,0,0,0-0.1
			C84,59.6,84,59.6,84,59.5z M70.4,71c-5.8,0-10.7-4.4-11.2-10.1h22.5C81,66.6,76.2,71,70.4,71z"/>
		<path class="st0" d="M78,41.8c-0.2-0.6-0.9-0.9-1.5-0.7c-0.6,0.2-0.9,0.9-0.7,1.5l5.4,15.9h2.5L78,41.8z"/>
		<path class="st0" d="M40.5,58.6H18.8l0,0h-2.5l-0.3,0.8c0,0,0,0,0,0.1c0,0,0,0.1,0,0.1c0,0,0,0.1,0,0.1c0,0,0,0,0,0.1c0,0,0,0,0,0
			c0,0,0,0,0,0.1c0,0,0,0,0,0c0,7.5,6.1,13.6,13.6,13.6c7.5,0,13.6-6.1,13.6-13.6c0,0,0,0,0-0.1c0,0,0-0.1,0-0.1c0,0,0-0.1,0-0.1
			c0,0,0,0,0-0.1l-0.3-0.8L40.5,58.6L40.5,58.6z M29.6,71c-5.8,0-10.7-4.4-11.2-10.1h22.5C40.3,66.6,35.5,71,29.6,71z"/>
	</g>
</g>
</svg>
