<?xml version="1.0" encoding="utf-8"?>
<!-- Generator: Adobe Illustrator 22.1.0, SVG Export Plug-In . SVG Version: 6.00 Build 0)  -->
<svg version="1.1" id="Layer_1" xmlns="http://www.w3.org/2000/svg" xmlns:xlink="http://www.w3.org/1999/xlink" x="0px" y="0px"
	 viewBox="0 0 80 74.5" style="enable-background:new 0 0 80 74.5;" xml:space="preserve">
<style type="text/css">
	.st0{fill:#4597D2;}
</style>
<g>
	<path class="st0" d="M62.3,15.9c-0.1,0-0.2,0-0.3-0.1c-0.2-0.2-0.2-0.4,0-0.6l2-2c0.2-0.2,0.4-0.2,0.6,0c0.2,0.2,0.2,0.4,0,0.6
		l-2,2C62.5,15.9,62.4,15.9,62.3,15.9z"/>
	<path class="st0" d="M58.2,12.4c-0.1,0-0.2,0-0.2-0.1c-0.2-0.1-0.2-0.4-0.1-0.5l1.6-2.4c0.1-0.2,0.4-0.2,0.5-0.1
		c0.2,0.1,0.2,0.4,0.1,0.5l-1.6,2.4C58.4,12.4,58.3,12.4,58.2,12.4z"/>
	<path class="st0" d="M53.5,9.7c-0.1,0-0.1,0-0.2,0c-0.2-0.1-0.3-0.3-0.2-0.5l1.2-2.6c0.1-0.2,0.3-0.3,0.5-0.2
		c0.2,0.1,0.3,0.3,0.2,0.5l-1.2,2.6C53.8,9.7,53.7,9.7,53.5,9.7z"/>
	<path class="st0" d="M48.5,7.9c0,0-0.1,0-0.1,0c-0.2-0.1-0.3-0.3-0.3-0.5l0.7-2.8c0.1-0.2,0.3-0.3,0.5-0.3c0.2,0.1,0.3,0.3,0.3,0.5
		l-0.7,2.8C48.8,7.8,48.7,7.9,48.5,7.9z"/>
	<path class="st0" d="M43.2,6.9C43.2,6.9,43.2,6.9,43.2,6.9c-0.2,0-0.4-0.2-0.4-0.4l0.3-2.9c0-0.2,0.2-0.4,0.4-0.4
		c0.2,0,0.4,0.2,0.4,0.4l-0.3,2.9C43.6,6.8,43.4,6.9,43.2,6.9z"/>
	<path class="st0" d="M37.8,6.9c-0.2,0-0.4-0.2-0.4-0.4l-0.3-2.9c0-0.2,0.1-0.4,0.4-0.4c0.2,0,0.4,0.1,0.4,0.4l0.3,2.9
		C38.2,6.7,38.1,6.9,37.8,6.9C37.8,6.9,37.8,6.9,37.8,6.9z"/>
	<path class="st0" d="M32.5,7.8c-0.2,0-0.3-0.1-0.4-0.3l-0.7-2.8c-0.1-0.2,0.1-0.4,0.3-0.5c0.2-0.1,0.4,0.1,0.5,0.3l0.7,2.8
		c0.1,0.2-0.1,0.4-0.3,0.5C32.6,7.8,32.6,7.8,32.5,7.8z"/>
	<path class="st0" d="M27.5,9.6c-0.1,0-0.3-0.1-0.4-0.2l-1.2-2.6c-0.1-0.2,0-0.4,0.2-0.5c0.2-0.1,0.4,0,0.5,0.2l1.2,2.6
		c0.1,0.2,0,0.4-0.2,0.5C27.6,9.6,27.5,9.6,27.5,9.6z"/>
	<path class="st0" d="M22.8,12.3c-0.1,0-0.2-0.1-0.3-0.2l-1.6-2.4c-0.1-0.2-0.1-0.4,0.1-0.5c0.2-0.1,0.4-0.1,0.5,0.1l1.6,2.4
		c0.1,0.2,0.1,0.4-0.1,0.5C23,12.3,22.9,12.3,22.8,12.3z"/>
	<path class="st0" d="M18.7,15.8c-0.1,0-0.2,0-0.3-0.1l-2-2c-0.2-0.2-0.2-0.4,0-0.6c0.2-0.2,0.4-0.2,0.6,0l2,2
		c0.2,0.2,0.2,0.4,0,0.6C18.9,15.7,18.8,15.8,18.7,15.8z"/>
	<path class="st0" d="M15.2,19.9c-0.1,0-0.2,0-0.2-0.1l-2.4-1.6c-0.2-0.1-0.2-0.4-0.1-0.5c0.1-0.2,0.4-0.2,0.5-0.1l2.4,1.6
		c0.2,0.1,0.2,0.4,0.1,0.5C15.4,19.8,15.3,19.9,15.2,19.9z"/>
	<path class="st0" d="M12.5,24.5c-0.1,0-0.1,0-0.2,0l-2.6-1.2c-0.2-0.1-0.3-0.3-0.2-0.5c0.1-0.2,0.3-0.3,0.5-0.2l2.6,1.2
		c0.2,0.1,0.3,0.3,0.2,0.5C12.8,24.4,12.6,24.5,12.5,24.5z"/>
	<path class="st0" d="M10.6,29.6c0,0-0.1,0-0.1,0l-2.8-0.7c-0.2-0.1-0.3-0.3-0.3-0.5C7.5,28.1,7.7,28,8,28l2.8,0.7
		c0.2,0.1,0.3,0.3,0.3,0.5C11,29.4,10.8,29.6,10.6,29.6z"/>
	<path class="st0" d="M9.7,34.8C9.7,34.8,9.7,34.8,9.7,34.8l-2.9-0.3c-0.2,0-0.4-0.2-0.4-0.4c0-0.2,0.2-0.4,0.4-0.4l2.9,0.3
		c0.2,0,0.4,0.2,0.4,0.4C10.1,34.7,9.9,34.8,9.7,34.8z"/>
	<path class="st0" d="M6.8,40.5c-0.2,0-0.4-0.2-0.4-0.4c0-0.2,0.1-0.4,0.4-0.4l2.9-0.3c0.2,0,0.4,0.1,0.4,0.4c0,0.2-0.1,0.4-0.4,0.4
		L6.8,40.5C6.8,40.5,6.8,40.5,6.8,40.5z"/>
	<path class="st0" d="M7.8,46.3c-0.2,0-0.3-0.1-0.4-0.3c-0.1-0.2,0.1-0.4,0.3-0.5l2.8-0.7c0.2-0.1,0.4,0.1,0.5,0.3
		c0.1,0.2-0.1,0.4-0.3,0.5l-2.8,0.7C7.9,46.3,7.8,46.3,7.8,46.3z"/>
	<path class="st0" d="M9.8,51.8c-0.1,0-0.3-0.1-0.4-0.2c-0.1-0.2,0-0.4,0.2-0.5l2.6-1.2c0.2-0.1,0.4,0,0.5,0.2
		c0.1,0.2,0,0.4-0.2,0.5L10,51.8C9.9,51.8,9.8,51.8,9.8,51.8z"/>
	<path class="st0" d="M12.7,56.9c-0.1,0-0.2-0.1-0.3-0.2c-0.1-0.2-0.1-0.4,0.1-0.5l2.4-1.6c0.2-0.1,0.4-0.1,0.5,0.1
		c0.1,0.2,0.1,0.4-0.1,0.5l-2.4,1.6C12.9,56.9,12.8,56.9,12.7,56.9z"/>
	<path class="st0" d="M16.5,61.4c-0.1,0-0.2,0-0.3-0.1c-0.2-0.2-0.2-0.4,0-0.6l2-2c0.2-0.2,0.4-0.2,0.6,0c0.2,0.2,0.2,0.4,0,0.6
		l-2,2C16.7,61.4,16.6,61.4,16.5,61.4z"/>
	<path class="st0" d="M21,65.2c-0.1,0-0.2,0-0.2-0.1c-0.2-0.1-0.2-0.4-0.1-0.5l1.6-2.4c0.1-0.2,0.4-0.2,0.5-0.1
		c0.2,0.1,0.2,0.4,0.1,0.5L21.3,65C21.2,65.1,21.1,65.2,21,65.2z"/>
	<path class="st0" d="M26,68.2c-0.1,0-0.1,0-0.2,0c-0.2-0.1-0.3-0.3-0.2-0.5l1.2-2.6c0.1-0.2,0.3-0.3,0.5-0.2
		c0.2,0.1,0.3,0.3,0.2,0.5l-1.2,2.6C26.3,68.1,26.2,68.2,26,68.2z"/>
	<path class="st0" d="M31.6,70.2c0,0-0.1,0-0.1,0c-0.2-0.1-0.3-0.3-0.3-0.5l0.7-2.8c0.1-0.2,0.3-0.3,0.5-0.3
		c0.2,0.1,0.3,0.3,0.3,0.5l-0.7,2.8C31.9,70.1,31.7,70.2,31.6,70.2z"/>
	<path class="st0" d="M37.4,71.2C37.3,71.2,37.3,71.2,37.4,71.2c-0.2,0-0.4-0.2-0.4-0.4l0.3-2.9c0-0.2,0.2-0.4,0.4-0.4
		c0.2,0,0.4,0.2,0.4,0.4l-0.3,2.9C37.7,71.1,37.6,71.2,37.4,71.2z"/>
	<path class="st0" d="M43.2,71.3c-0.2,0-0.4-0.2-0.4-0.4L42.6,68c0-0.2,0.1-0.4,0.4-0.4c0.2,0,0.4,0.1,0.4,0.4l0.3,2.9
		C43.6,71,43.5,71.2,43.2,71.3C43.3,71.3,43.2,71.3,43.2,71.3z"/>
	<path class="st0" d="M49,70.2c-0.2,0-0.3-0.1-0.4-0.3l-0.7-2.8c-0.1-0.2,0.1-0.4,0.3-0.5c0.2-0.1,0.4,0.1,0.5,0.3l0.7,2.8
		c0.1,0.2-0.1,0.4-0.3,0.5C49.1,70.2,49.1,70.2,49,70.2z"/>
	<path class="st0" d="M54.6,68.3c-0.1,0-0.3-0.1-0.4-0.2L53,65.4c-0.1-0.2,0-0.4,0.2-0.5c0.2-0.1,0.4,0,0.5,0.2l1.2,2.6
		c0.1,0.2,0,0.4-0.2,0.5C54.7,68.2,54.6,68.3,54.6,68.3z"/>
	<path class="st0" d="M59.7,65.3c-0.1,0-0.2-0.1-0.3-0.2l-1.6-2.4c-0.1-0.2-0.1-0.4,0.1-0.5c0.2-0.1,0.4-0.1,0.5,0.1l1.6,2.4
		c0.1,0.2,0.1,0.4-0.1,0.5C59.8,65.3,59.7,65.3,59.7,65.3z"/>
	<path class="st0" d="M64.2,61.6c-0.1,0-0.2,0-0.3-0.1l-2-2c-0.2-0.2-0.2-0.4,0-0.6c0.2-0.2,0.4-0.2,0.6,0l2,2
		c0.2,0.2,0.2,0.4,0,0.6C64.4,61.5,64.3,61.6,64.2,61.6z"/>
	<path class="st0" d="M68,57.1c-0.1,0-0.2,0-0.2-0.1l-2.4-1.6c-0.2-0.1-0.2-0.4-0.1-0.5c0.1-0.2,0.4-0.2,0.5-0.1l2.4,1.6
		c0.2,0.1,0.2,0.4,0.1,0.5C68.2,57,68.1,57.1,68,57.1z"/>
	<path class="st0" d="M70.9,52c-0.1,0-0.1,0-0.2,0l-2.6-1.2c-0.2-0.1-0.3-0.3-0.2-0.5c0.1-0.2,0.3-0.3,0.5-0.2l2.6,1.2
		c0.2,0.1,0.3,0.3,0.2,0.5C71.2,51.9,71.1,52,70.9,52z"/>
	<path class="st0" d="M72.9,46.5c0,0-0.1,0-0.1,0l-2.8-0.7c-0.2-0.1-0.3-0.3-0.3-0.5c0.1-0.2,0.3-0.3,0.5-0.3l2.8,0.7
		c0.2,0.1,0.3,0.3,0.3,0.5C73.3,46.4,73.1,46.5,72.9,46.5z"/>
	<path class="st0" d="M74,40.7C74,40.7,74,40.7,74,40.7l-2.9-0.3c-0.2,0-0.4-0.2-0.4-0.4c0-0.2,0.2-0.4,0.4-0.4l2.9,0.3
		c0.2,0,0.4,0.2,0.4,0.4C74.4,40.5,74.2,40.7,74,40.7z"/>
	<path class="st0" d="M71.1,35.1c-0.2,0-0.4-0.2-0.4-0.4c0-0.2,0.1-0.4,0.4-0.4L74,34c0.2,0,0.4,0.1,0.4,0.4c0,0.2-0.1,0.4-0.4,0.4
		L71.1,35.1C71.2,35.1,71.2,35.1,71.1,35.1z"/>
	<path class="st0" d="M70.2,29.8c-0.2,0-0.3-0.1-0.4-0.3c-0.1-0.2,0.1-0.4,0.3-0.5l2.8-0.7c0.2-0.1,0.4,0.1,0.5,0.3
		c0.1,0.2-0.1,0.4-0.3,0.5l-2.8,0.7C70.3,29.8,70.3,29.8,70.2,29.8z"/>
	<path class="st0" d="M68.4,24.7c-0.1,0-0.3-0.1-0.4-0.2c-0.1-0.2,0-0.4,0.2-0.5l2.6-1.2c0.2-0.1,0.4,0,0.5,0.2
		c0.1,0.2,0,0.4-0.2,0.5l-2.6,1.2C68.5,24.7,68.5,24.7,68.4,24.7z"/>
	<path class="st0" d="M65.7,20c-0.1,0-0.2-0.1-0.3-0.2c-0.1-0.2-0.1-0.4,0.1-0.5l2.4-1.6c0.2-0.1,0.4-0.1,0.5,0.1
		c0.1,0.2,0.1,0.4-0.1,0.5L66,20C65.9,20,65.8,20,65.7,20z"/>
	<path class="st0" d="M40.1,49.3l-12.4,8.6c-0.5,0.3-1.1-0.1-1-0.7l4.4-14.4c0.1-0.3,0-0.5-0.2-0.7L19,33c-0.5-0.4-0.2-1.1,0.4-1.1
		l15.1-0.3c0.3,0,0.5-0.2,0.6-0.4l4.9-14.2c0.2-0.6,1-0.6,1.2,0L46,31.1c0.1,0.2,0.3,0.4,0.6,0.4l15.1,0.3c0.6,0,0.8,0.8,0.4,1.1
		l-12,9.1c-0.2,0.2-0.3,0.4-0.2,0.7l4.4,14.4c0.2,0.6-0.5,1-1,0.7l-12.4-8.6C40.6,49.1,40.4,49.1,40.1,49.3z"/>
</g>
</svg>
